<svg width="39" height="40" viewBox="0 0 39 40" fill="none" xmlns="http://www.w3.org/2000/svg">
<path d="M19.5002 32C13.1593 32 8 26.7306 8 20.2534C8 19.561 8.54963 19 9.22716 19C9.90508 19 10.4543 19.5614 10.4543 20.2534C10.4547 25.3481 14.5124 29.4931 19.5002 29.4931C24.4876 29.4931 28.5457 25.3481 28.5457 20.2538C28.5457 19.5614 29.0949 19.0004 29.7728 19.0004C30.4508 19.0004 31 19.5618 31 20.2538C31.0004 26.7306 25.8411 32 19.5002 32Z" fill="white"/>
<path d="M19.4778 1.41992C23.1894 1.41992 26.2834 4.54883 26.2834 8.43066V18.6768C26.2834 22.5586 23.1893 25.6875 19.4778 25.6875C15.7663 25.6873 12.6731 22.5585 12.6731 18.6768V8.43066C12.6731 4.54894 15.7663 1.4201 19.4778 1.41992Z" stroke="white" stroke-width="2.4"/>
<path d="M19.325 39C18.593 39 18 38.4723 18 37.821V31.179C18 30.5277 18.5934 30 19.325 30C20.057 30 20.65 30.5277 20.65 31.179V37.821C20.65 38.4723 20.057 39 19.325 39Z" fill="white"/>
<path d="M25.2852 39.5684H13.7154C12.7677 39.5684 12 38.9583 12 38.2052C12 37.4521 12.7683 36.842 13.7154 36.842H25.2846C26.2323 36.842 27 37.4521 27 38.2052C27 38.9583 26.2328 39.5684 25.2852 39.5684Z" fill="white"/>
</svg>
