<svg fill="none" height="24" viewBox="0 0 24 24" width="24" xmlns="http://www.w3.org/2000/svg" xmlns:xlink="http://www.w3.org/1999/xlink"><linearGradient id="a" gradientUnits="userSpaceOnUse" x1="3.7776" x2="10.1295" y1="6.40553" y2="17.7764"><stop offset="0" stop-color="#5a62c3"/><stop offset=".5" stop-color="#4d55bd"/><stop offset="1" stop-color="#3940ab"/></linearGradient><path d="m15.9501 9.75h5.1661c.4881 0 .8837.3828.8837.855v4.5526c0 1.7355-1.4541 3.1424-3.2479 3.1424h-.0153c-1.7938.0002-3.2482-1.4064-3.2484-3.1419 0-.0002 0-.0003 0-.0005v-4.9607c0-.24684.2068-.4469.4618-.4469z" fill="#5059c9"/><path d="m19.4419 8.85005c1.1559 0 2.093-.90662 2.093-2.025s-.9371-2.025-2.093-2.025-2.093.90662-2.093 2.025.9371 2.025 2.093 2.025z" fill="#5059c9"/><path d="m12.9302 8.85001c1.6697 0 3.0233-1.30957 3.0233-2.92501 0-1.61543-1.3536-2.925-3.0233-2.925s-3.02322 1.30957-3.02322 2.925c0 1.61544 1.35352 2.92501 3.02322 2.92501z" fill="#7b83eb"/><path d="m16.9613 9.75h-8.52746c-.48226.01155-.86375.3988-.85256.8654v5.1925c-.06734 2.8 2.2223 5.1236 5.11632 5.1921 2.8939-.0685 5.1836-2.3921 5.1162-5.1921v-5.1925c.0112-.4666-.3703-.85385-.8525-.8654z" fill="#7b83eb"/><g fill="#000"><path d="m13.1627 9.75v7.2765c-.0023.3337-.2113.6335-.5302.7605-.1016.0416-.2107.063-.321.063h-4.3209c-.06046-.1485-.11627-.297-.16279-.45-.16281-.5164-.24589-1.0531-.24652-1.593v-5.193c-.01118-.4658.36969-.85245.85117-.864z" opacity=".1"/><path d="m12.6976 9.75v7.7265c0 .1067-.0222.2123-.0651.3105-.1313.3086-.4412.5108-.7861.513h-3.63719c-.07907-.1485-.15349-.297-.21861-.45s-.11627-.297-.16279-.45c-.16281-.5163-.24589-1.0531-.24652-1.593v-5.193c-.01118-.4658.36969-.85245.85117-.864z" opacity=".2"/><path d="m12.6976 9.75v6.8265c-.0036.4534-.3826.8201-.8512.8235h-4.01859c-.16281-.5163-.24589-1.0531-.24652-1.593v-5.193c-.01118-.4658.36969-.85245.85117-.864z" opacity=".2"/><path d="m12.2325 9.75v6.8265c-.0036.4534-.3826.8201-.8512.8235h-3.55349c-.16281-.5163-.24589-1.0531-.24652-1.593v-5.193c-.01118-.4658.36969-.85245.85117-.864z" opacity=".2"/><path d="m13.1628 7.42359v1.4175c-.0791.0045-.1535.009-.2325.009-.0791 0-.1535-.00449-.2326-.009-.157-.01008-.3127-.03418-.4651-.072-.9419-.2158-1.72-.85487-2.093-1.719-.0642-.14511-.1141-.29579-.14888-.44999h2.32098c.4693.00172.8493.36939.8511.82349z" opacity=".1"/><path d="m12.6978 7.87354v.9675c-.157-.01008-.3127-.03418-.4651-.07199-.9419-.2158-1.72-.85488-2.0931-1.719h1.707c.4694.00172.8494.3694.8512.82349z" opacity=".2"/><path d="m12.6978 7.87354v.9675c-.157-.01008-.3127-.03418-.4651-.07199-.9419-.2158-1.72-.85488-2.0931-1.719h1.707c.4694.00172.8494.3694.8512.82349z" opacity=".2"/><path d="m12.2327 7.87355v.8955c-.9419-.2158-1.72-.85488-2.0931-1.719h1.2419c.4694.00173.8494.36941.8512.8235z" opacity=".2"/></g><path d="m2.85255 7.05005h8.52745c.4709 0 .8525.3693.8525.82484v8.25031c0 .4555-.3817.8248-.8525.8248h-8.52745c-.47085 0-.85255-.3693-.85255-.8248v-8.25031c0-.45554.38171-.82484.85255-.82484z" fill="url(#a)"/><path d="m9.36 10.19h-1.70466v4.491h-1.08604v-4.491h-1.69674v-.87115h4.48744z" fill="#fff"/></svg>