<svg width="476" height="126" viewBox="0 0 476 126" fill="none" xmlns="http://www.w3.org/2000/svg">
<path d="M363.38 91.59C353.39 89.16 345.45 82.84 346.17 77.89C346.59 75.03 349 74.14 349 76.85C349 82.47 368.79 88.87 377.39 86.04C379.38 85.38 381 84.54 380.99 84.17C380.99 83.8 377.73 81.49 373.76 79.04C357.74 69.16 350.22 56.6 354.37 46.66C357.79 38.46 367.06 38.41 379.07 46.52C390.1 53.98 395 61.63 395 71.41C395 74.49 395.51 77.2 396.16 77.6C396.81 78 400.58 78.53 404.55 78.79C410.73 79.18 412.56 78.89 417.21 76.76C421.43 74.83 423.06 73.41 424.53 70.39C426.66 66 427.91 52 426.17 52C425.59 52 424.83 52.46 424.48 53.02C423.62 54.42 410.43 61 408.49 61C406.12 61 405.59 58.28 407.42 55.48C408.32 54.1 412.14 50.74 415.91 48C419.68 45.26 423.49 41.9 424.38 40.54C428.07 34.9 430.67 35.15 438.84 41.91C449.67 50.88 451 52.27 451 54.65C451 59.46 445.9 58.99 438.74 53.52C436.2 51.59 433.88 50.38 433.59 50.85C433.3 51.33 433.78 54.54 434.66 58C435.98 63.22 436.05 65.19 435.07 69.57C431.77 84.32 417.83 91.16 397.52 88C389.58 86.77 389.08 86.8 386.26 88.82C380.7 92.77 372.41 93.78 363.38 91.59ZM387.69 70C386.91 63.41 382.61 57.26 375.46 52.51C369.02 48.24 362.41 46.77 361.41 49.37C359.71 53.81 366.58 63.62 375.74 69.8C382.07 74.08 383.57 74.8 386.39 74.92C388.08 74.99 388.21 74.46 387.69 70Z" fill="black"/>
<path d="M11.988 81.432C9.804 81.432 7.908 80.976 6.3 80.064C4.692 79.152 3.444 77.856 2.556 76.176C1.692 74.496 1.26 72.504 1.26 70.2C1.26 68.328 1.56 66.624 2.16 65.088C2.784 63.528 3.648 62.196 4.752 61.092C5.88 59.964 7.2 59.1 8.712 58.5C10.248 57.876 11.952 57.564 13.824 57.564C14.568 57.564 15.324 57.612 16.092 57.708C16.884 57.78 17.592 57.876 18.216 57.996C18.864 58.116 19.38 58.224 19.764 58.32C20.172 58.392 20.376 58.428 20.376 58.428L20.52 58.752C20.52 58.752 20.46 59.04 20.34 59.616C20.22 60.168 20.088 60.936 19.944 61.92C19.8 62.88 19.692 63.948 19.62 65.124L17.1 65.304C17.1 65.304 17.112 65.112 17.136 64.728C17.184 64.32 17.208 63.9 17.208 63.468C17.208 62.388 16.824 61.584 16.056 61.056C15.288 60.528 14.1 60.264 12.492 60.264C11.028 60.264 9.78 60.612 8.748 61.308C7.716 62.004 6.912 63 6.336 64.296C5.784 65.568 5.508 67.14 5.508 69.012C5.508 71.052 5.808 72.816 6.408 74.304C7.008 75.792 7.848 76.944 8.928 77.76C10.008 78.552 11.292 78.948 12.78 78.948C14.268 78.948 15.444 78.516 16.308 77.652C17.196 76.788 17.832 75.432 18.216 73.584L20.736 73.368C20.736 73.368 20.7 73.56 20.628 73.944C20.556 74.328 20.472 74.832 20.376 75.456C20.28 76.08 20.184 76.764 20.088 77.508C19.992 78.228 19.92 78.936 19.872 79.632L19.62 79.992C19.62 79.992 19.284 80.112 18.612 80.352C17.94 80.592 17.028 80.832 15.876 81.072C14.748 81.312 13.452 81.432 11.988 81.432ZM23.2217 81.396L23.4377 79.56C24.0617 79.416 24.5057 79.212 24.7697 78.948C25.0337 78.66 25.1897 78.3 25.2377 77.868C25.3097 77.412 25.3457 76.836 25.3457 76.14V58.932C25.3457 58.308 25.2857 57.864 25.1657 57.6C25.0697 57.312 24.8537 57.132 24.5177 57.06C24.2057 56.988 23.7377 56.976 23.1137 57.024L22.9697 56.916L23.1497 55.368C24.1817 55.248 25.2137 55.104 26.2457 54.936C27.3017 54.744 28.3457 54.528 29.3777 54.288L29.5937 54.864C29.4977 55.104 29.3897 55.68 29.2697 56.592C29.1737 57.48 29.0777 58.644 28.9817 60.084C28.9097 61.524 28.8377 63.168 28.7657 65.016C28.6937 66.84 28.6337 68.808 28.5857 70.92C28.5617 73.008 28.5497 75.156 28.5497 77.364C28.5497 78.012 28.6337 78.48 28.8017 78.768C28.9937 79.056 29.3057 79.2 29.7377 79.2L30.9617 79.128L31.0337 79.308L30.7097 81.108C30.2057 81.084 29.6057 81.06 28.9097 81.036C28.2137 81.012 27.6137 81 27.1097 81C26.6537 81 26.0657 81.036 25.3457 81.108C24.6497 81.18 23.9417 81.276 23.2217 81.396ZM32.8312 81.432L33.0472 79.596C33.7672 79.428 34.2832 79.164 34.5952 78.804C34.9072 78.42 35.0632 77.916 35.0632 77.292V68.76C35.0632 68.064 34.9552 67.56 34.7392 67.248C34.5232 66.936 34.1632 66.78 33.6592 66.78C33.4912 66.78 33.2992 66.804 33.0832 66.852C32.8912 66.9 32.7952 66.924 32.7952 66.924L32.9392 65.268C33.6592 65.148 34.3672 65.028 35.0632 64.908C35.7592 64.788 36.3952 64.668 36.9712 64.548C37.5472 64.428 38.0032 64.332 38.3392 64.26C38.6992 64.188 38.8792 64.152 38.8792 64.152L39.1312 64.656C39.0112 64.896 38.8912 65.412 38.7712 66.204C38.6752 66.996 38.5912 67.98 38.5192 69.156C38.4472 70.308 38.3872 71.592 38.3392 73.008C38.3152 74.4 38.3032 75.852 38.3032 77.364C38.3032 77.988 38.3872 78.444 38.5552 78.732C38.7472 79.02 39.0592 79.164 39.4912 79.164C39.6832 79.164 39.9232 79.152 40.2112 79.128C40.4992 79.104 40.6432 79.092 40.6432 79.092L40.7152 79.272L40.3912 81.108C40.3912 81.108 40.2712 81.096 40.0312 81.072C39.8152 81.072 39.5272 81.06 39.1672 81.036C38.8072 81.036 38.4232 81.024 38.0152 81C37.6072 81 37.2232 81 36.8632 81C36.3112 81 35.7232 81.036 35.0992 81.108C34.4752 81.18 33.9352 81.252 33.4792 81.324C33.0472 81.396 32.8312 81.432 32.8312 81.432ZM36.4312 60.444C35.7352 60.444 35.2072 60.228 34.8472 59.796C34.5112 59.364 34.3432 58.86 34.3432 58.284C34.3432 57.588 34.5712 57 35.0272 56.52C35.4832 56.04 36.0712 55.8 36.7912 55.8C37.4632 55.8 37.9792 56.016 38.3392 56.448C38.6992 56.856 38.8792 57.36 38.8792 57.96C38.8792 58.656 38.6512 59.244 38.1952 59.724C37.7632 60.204 37.1752 60.444 36.4312 60.444ZM50.6911 81.432C49.1311 81.432 47.7751 81.096 46.6231 80.424C45.4711 79.752 44.5711 78.816 43.9231 77.616C43.2991 76.416 42.9871 74.988 42.9871 73.332C42.9871 71.58 43.3591 70.02 44.1031 68.652C44.8471 67.26 45.8551 66.168 47.1271 65.376C48.4231 64.56 49.8871 64.152 51.5191 64.152C52.3351 64.152 53.0671 64.212 53.7151 64.332C54.3871 64.428 54.9151 64.548 55.2991 64.692C55.6831 64.812 55.8751 64.872 55.8751 64.872L56.0191 65.124C56.0191 65.124 55.9591 65.364 55.8391 65.844C55.7431 66.3 55.6351 66.924 55.5151 67.716C55.3951 68.508 55.2991 69.396 55.2271 70.38L53.3911 70.488V69.336C53.3911 68.472 53.1511 67.8 52.6711 67.32C52.1911 66.816 51.5431 66.564 50.7271 66.564C49.4311 66.564 48.4351 67.044 47.7391 68.004C47.0431 68.94 46.6951 70.284 46.6951 72.036C46.6951 74.076 47.0911 75.672 47.8831 76.824C48.6751 77.952 49.7791 78.516 51.1951 78.516C51.8431 78.516 52.4671 78.42 53.0671 78.228C53.6911 78.012 54.1831 77.82 54.5431 77.652C54.9271 77.46 55.1191 77.364 55.1191 77.364L55.3711 77.472L55.8751 78.912C55.8751 78.912 55.6951 79.044 55.3351 79.308C54.9991 79.548 54.5551 79.836 54.0031 80.172C53.4751 80.508 52.9111 80.796 52.3111 81.036C51.7111 81.3 51.1711 81.432 50.6911 81.432ZM58.2441 79.416C58.8441 79.32 59.2641 79.164 59.5041 78.948C59.7681 78.708 59.9241 78.36 59.9721 77.904C60.0441 77.448 60.0801 76.86 60.0801 76.14V58.932C60.0801 57.66 59.6841 57.012 58.8921 56.988C58.6761 56.964 58.4481 56.976 58.2081 57.024C57.9921 57.048 57.8361 57.06 57.7401 57.06C57.7401 56.94 57.7401 56.832 57.7401 56.736C57.7641 56.64 57.7761 56.556 57.7761 56.484L57.8841 55.368C58.6041 55.296 59.3241 55.2 60.0441 55.08C60.7641 54.936 61.4361 54.804 62.0601 54.684C62.6841 54.564 63.1761 54.468 63.5361 54.396C63.9201 54.324 64.1121 54.288 64.1121 54.288L64.3281 54.864C64.2321 55.032 64.1241 55.548 64.0041 56.412C63.9081 57.276 63.8121 58.428 63.7161 59.868C63.6441 61.284 63.5721 62.916 63.5001 64.764C63.4281 66.612 63.3681 68.604 63.3201 70.74C63.2961 72.876 63.2841 75.084 63.2841 77.364C63.2841 78.036 63.3801 78.516 63.5721 78.804C63.7641 79.068 64.0641 79.2 64.4721 79.2C64.6641 79.2 64.8921 79.188 65.1561 79.164C65.4441 79.14 65.5881 79.128 65.5881 79.128L65.6961 79.308L65.3361 81.144C65.3361 81.144 65.2161 81.132 64.9761 81.108C64.7361 81.084 64.4241 81.06 64.0401 81.036C63.6801 81.036 63.2961 81.024 62.8881 81C62.5041 81 62.1321 81 61.7721 81C61.2441 81 60.6801 81.012 60.0801 81.036C59.5041 81.084 59.0121 81.12 58.6041 81.144C58.2201 81.192 58.0281 81.216 58.0281 81.216L58.2441 79.416ZM64.0401 72.576L64.1121 71.892L68.0361 68.04C68.3481 67.752 68.5521 67.524 68.6481 67.356C68.7681 67.164 68.8281 66.984 68.8281 66.816C68.8281 66.552 68.6721 66.36 68.3601 66.24C68.0721 66.12 67.5921 66.06 66.9201 66.06L66.8121 65.88L67.1361 64.512C67.1361 64.512 67.3521 64.524 67.7841 64.548C68.2401 64.548 68.7681 64.56 69.3681 64.584C69.9921 64.584 70.5561 64.584 71.0601 64.584C71.5641 64.584 72.0921 64.572 72.6441 64.548C73.2201 64.5 73.7001 64.464 74.0841 64.44C74.4921 64.416 74.6961 64.404 74.6961 64.404L74.8041 64.584L74.4801 66.096C73.6641 66.336 72.8481 66.78 72.0321 67.428C71.2401 68.076 70.4481 68.784 69.6561 69.552C68.8881 70.32 68.1321 71.064 67.3881 71.784L70.8441 76.536C71.5881 77.52 72.2721 78.24 72.8961 78.696C73.5201 79.128 74.1921 79.356 74.9121 79.38L75.0201 79.596L74.8041 80.964C74.8041 80.964 74.6241 81 74.2641 81.072C73.9281 81.168 73.5441 81.252 73.1121 81.324C72.7041 81.42 72.3801 81.48 72.1401 81.504C71.8761 81.504 71.6241 81.48 71.3841 81.432C71.1441 81.384 70.9281 81.312 70.7361 81.216C70.2561 81.048 69.8121 80.76 69.4041 80.352C68.9961 79.92 68.5281 79.296 68.0001 78.48L64.0401 72.576ZM83.2058 79.272C83.8778 79.2 84.3458 79.032 84.6098 78.768C84.8738 78.48 85.0058 78 85.0058 77.328V58.932C85.0058 58.236 84.8978 57.744 84.6818 57.456C84.4658 57.144 84.0938 56.988 83.5658 56.988H82.8098L82.6298 56.844L82.8098 55.368C83.4338 55.296 84.1178 55.2 84.8618 55.08C85.6298 54.936 86.3858 54.804 87.1298 54.684C87.8738 54.54 88.5098 54.408 89.0378 54.288L89.2538 54.864C89.1338 55.032 89.0138 55.656 88.8938 56.736C88.7738 57.792 88.6658 59.208 88.5698 60.984C88.4978 62.76 88.4258 64.788 88.3538 67.068C88.5938 66.852 88.9298 66.588 89.3618 66.276C89.8178 65.94 90.2978 65.616 90.8018 65.304C91.3298 64.968 91.8338 64.692 92.3138 64.476C92.7938 64.26 93.1778 64.152 93.4658 64.152C95.0978 64.152 96.3578 64.56 97.2458 65.376C98.1578 66.168 98.6138 67.308 98.6138 68.796C98.6138 69.132 98.5778 69.672 98.5058 70.416C98.4578 71.136 98.3858 71.94 98.2898 72.828C98.2178 73.716 98.1458 74.568 98.0738 75.384C98.0258 76.176 98.0018 76.812 98.0018 77.292C98.0018 77.964 98.0858 78.456 98.2538 78.768C98.4458 79.056 98.7578 79.2 99.1898 79.2C99.3338 79.2 99.5258 79.2 99.7658 79.2C100.006 79.176 100.21 79.152 100.378 79.128L100.45 79.272L100.162 81.108C99.7058 81.084 99.1178 81.06 98.3978 81.036C97.7018 81.012 97.1138 81 96.6338 81C96.3458 81 95.9858 81.012 95.5538 81.036C95.1218 81.084 94.6658 81.132 94.1858 81.18C93.7058 81.228 93.2378 81.288 92.7818 81.36L92.9618 79.56C93.6338 79.392 94.1138 79.14 94.4018 78.804C94.6898 78.444 94.8338 77.964 94.8338 77.364L95.0138 70.632C95.0138 69.504 94.7858 68.652 94.3298 68.076C93.8738 67.476 93.2018 67.176 92.3138 67.176C91.7858 67.176 91.1378 67.344 90.3698 67.68C89.6258 68.016 88.9418 68.436 88.3178 68.94C88.2938 69.732 88.2698 70.56 88.2458 71.424C88.2458 72.288 88.2338 73.212 88.2098 74.196C88.2098 75.156 88.2098 76.2 88.2098 77.328C88.2098 78.024 88.3058 78.504 88.4978 78.768C88.6898 79.032 88.9898 79.164 89.3978 79.164C89.5418 79.164 89.7218 79.164 89.9378 79.164C90.1538 79.14 90.3458 79.128 90.5138 79.128L90.5858 79.272L90.2618 81.108C89.7818 81.084 89.1938 81.06 88.4978 81.036C87.8018 81.012 87.2018 81 86.6978 81C86.1938 81 85.5818 81 84.8618 81C84.1418 81.024 83.5058 81.06 82.9538 81.108L83.2058 79.272ZM110.425 81.432C108.841 81.432 107.461 81.096 106.285 80.424C105.109 79.752 104.197 78.816 103.549 77.616C102.901 76.392 102.577 74.964 102.577 73.332C102.577 72.06 102.793 70.872 103.225 69.768C103.657 68.664 104.245 67.692 104.989 66.852C105.757 66.012 106.633 65.352 107.617 64.872C108.601 64.392 109.657 64.152 110.785 64.152C114.577 64.152 116.473 66.024 116.473 69.768C116.473 70.104 116.437 70.452 116.365 70.812C116.317 71.172 116.269 71.46 116.221 71.676L115.789 72.072H106.141C106.141 73.992 106.525 75.504 107.293 76.608C108.061 77.712 109.141 78.336 110.533 78.48C111.949 78.624 113.605 78.264 115.501 77.4L115.717 77.508L116.221 78.876C115.717 79.236 115.117 79.62 114.421 80.028C113.749 80.412 113.053 80.736 112.333 81C111.637 81.288 111.001 81.432 110.425 81.432ZM106.213 70.452L112.009 70.164C112.321 70.116 112.525 70.044 112.621 69.948C112.741 69.828 112.801 69.6 112.801 69.264C112.801 68.328 112.573 67.62 112.117 67.14C111.661 66.66 111.001 66.42 110.137 66.42C109.105 66.42 108.229 66.78 107.509 67.5C106.813 68.196 106.381 69.18 106.213 70.452ZM119.681 79.38C120.401 79.308 120.881 79.092 121.121 78.732C121.361 78.348 121.481 77.64 121.481 76.608V69.048C121.481 68.232 121.373 67.668 121.157 67.356C120.941 67.02 120.569 66.852 120.041 66.852C119.873 66.852 119.705 66.876 119.537 66.924C119.393 66.948 119.321 66.96 119.321 66.96L119.141 66.708L119.285 65.268C120.173 65.1 121.037 64.932 121.877 64.764C122.741 64.596 123.461 64.452 124.037 64.332C124.613 64.188 124.901 64.116 124.901 64.116L125.189 64.368C125.189 64.368 125.153 64.56 125.081 64.944C125.033 65.304 124.985 65.76 124.937 66.312C124.889 66.84 124.865 67.38 124.865 67.932L125.009 68.04C125.777 66.936 126.617 66.048 127.529 65.376C128.465 64.68 129.317 64.332 130.085 64.332C130.469 64.332 130.757 64.356 130.949 64.404C131.165 64.452 131.273 64.476 131.273 64.476L131.381 64.692C131.381 64.692 131.357 64.872 131.309 65.232C131.261 65.568 131.189 66.024 131.093 66.6C131.021 67.176 130.949 67.812 130.877 68.508C130.829 69.18 130.781 69.828 130.733 70.452L128.933 70.56C128.933 69.504 128.873 68.808 128.753 68.472C128.633 68.136 128.357 67.968 127.925 67.968C127.469 67.968 126.977 68.148 126.449 68.508C125.945 68.868 125.465 69.372 125.009 70.02C125.009 70.02 124.997 70.236 124.973 70.668C124.949 71.1 124.925 71.652 124.901 72.324C124.877 72.972 124.841 73.644 124.793 74.34C124.769 75.036 124.745 75.648 124.721 76.176C124.697 76.704 124.685 77.04 124.685 77.184C124.685 77.904 124.793 78.408 125.009 78.696C125.249 78.96 125.669 79.092 126.269 79.092C126.581 79.092 126.941 79.08 127.349 79.056C127.757 79.008 127.961 78.984 127.961 78.984L128.033 79.164L127.673 81.108C127.673 81.108 127.529 81.096 127.241 81.072C126.977 81.072 126.629 81.06 126.197 81.036C125.765 81.036 125.309 81.024 124.829 81C124.373 81 123.953 81 123.569 81C122.849 81 122.177 81.012 121.553 81.036C120.929 81.06 120.425 81.084 120.041 81.108C119.657 81.132 119.465 81.144 119.465 81.144L119.681 79.38ZM140.694 81.432C139.11 81.432 137.73 81.096 136.554 80.424C135.378 79.752 134.466 78.816 133.818 77.616C133.17 76.392 132.846 74.964 132.846 73.332C132.846 72.06 133.062 70.872 133.494 69.768C133.926 68.664 134.514 67.692 135.258 66.852C136.026 66.012 136.902 65.352 137.886 64.872C138.87 64.392 139.926 64.152 141.054 64.152C144.846 64.152 146.742 66.024 146.742 69.768C146.742 70.104 146.706 70.452 146.634 70.812C146.586 71.172 146.538 71.46 146.49 71.676L146.058 72.072H136.41C136.41 73.992 136.794 75.504 137.562 76.608C138.33 77.712 139.41 78.336 140.802 78.48C142.218 78.624 143.874 78.264 145.77 77.4L145.986 77.508L146.49 78.876C145.986 79.236 145.386 79.62 144.69 80.028C144.018 80.412 143.322 80.736 142.602 81C141.906 81.288 141.27 81.432 140.694 81.432ZM136.482 70.452L142.278 70.164C142.59 70.116 142.794 70.044 142.89 69.948C143.01 69.828 143.07 69.6 143.07 69.264C143.07 68.328 142.842 67.62 142.386 67.14C141.93 66.66 141.27 66.42 140.406 66.42C139.374 66.42 138.498 66.78 137.778 67.5C137.082 68.196 136.65 69.18 136.482 70.452ZM162.209 81.432C160.553 81.432 159.353 81.096 158.609 80.424C157.889 79.728 157.529 78.6 157.529 77.04V68.544C157.529 67.872 157.385 67.404 157.097 67.14C156.833 66.876 156.305 66.732 155.513 66.708L155.297 66.456L155.477 65.088C156.149 64.752 156.797 64.392 157.421 64.008C158.045 63.6 158.597 63.216 159.077 62.856C159.581 62.472 159.965 62.16 160.229 61.92C160.517 61.68 160.661 61.56 160.661 61.56L161.525 61.92C161.525 61.92 161.489 62.172 161.417 62.676C161.345 63.18 161.261 63.9 161.165 64.836L165.989 64.728L166.133 64.836L165.773 66.996L161.021 66.888C160.949 67.968 160.889 69.216 160.841 70.632C160.793 72.048 160.769 73.62 160.769 75.348C160.769 76.476 160.961 77.292 161.345 77.796C161.753 78.276 162.425 78.516 163.361 78.516C163.913 78.516 164.429 78.42 164.909 78.228C165.413 78.012 165.665 77.904 165.665 77.904L166.061 78.948C166.061 78.948 165.905 79.08 165.593 79.344C165.305 79.584 164.933 79.872 164.477 80.208C164.045 80.52 163.613 80.796 163.181 81.036C162.773 81.3 162.449 81.432 162.209 81.432ZM175.207 81.432C173.767 81.432 172.495 81.096 171.391 80.424C170.311 79.752 169.459 78.804 168.835 77.58C168.235 76.356 167.935 74.94 167.935 73.332C167.935 71.556 168.295 69.984 169.015 68.616C169.759 67.224 170.779 66.132 172.075 65.34C173.371 64.548 174.823 64.152 176.431 64.152C177.895 64.152 179.167 64.488 180.247 65.16C181.351 65.832 182.203 66.78 182.803 68.004C183.403 69.204 183.703 70.62 183.703 72.252C183.703 74.004 183.331 75.576 182.587 76.968C181.867 78.36 180.859 79.452 179.563 80.244C178.291 81.036 176.839 81.432 175.207 81.432ZM176.071 79.236C177.271 79.236 178.207 78.756 178.879 77.796C179.575 76.812 179.923 75.444 179.923 73.692C179.923 72.228 179.731 70.968 179.347 69.912C178.987 68.832 178.471 68.004 177.799 67.428C177.151 66.852 176.371 66.564 175.459 66.564C174.283 66.564 173.347 67.056 172.651 68.04C171.979 69.024 171.643 70.392 171.643 72.144C171.643 73.632 171.823 74.904 172.183 75.96C172.543 77.016 173.059 77.832 173.731 78.408C174.403 78.96 175.183 79.236 176.071 79.236ZM8.82 117.432C7.26 117.432 5.904 117.096 4.752 116.424C3.6 115.752 2.7 114.816 2.052 113.616C1.428 112.416 1.116 110.988 1.116 109.332C1.116 107.58 1.488 106.02 2.232 104.652C2.976 103.26 3.984 102.168 5.256 101.376C6.552 100.56 8.016 100.152 9.648 100.152C10.464 100.152 11.196 100.212 11.844 100.332C12.516 100.428 13.044 100.548 13.428 100.692C13.812 100.812 14.004 100.872 14.004 100.872L14.148 101.124C14.148 101.124 14.088 101.364 13.968 101.844C13.872 102.3 13.764 102.924 13.644 103.716C13.524 104.508 13.428 105.396 13.356 106.38L11.52 106.488V105.336C11.52 104.472 11.28 103.8 10.8 103.32C10.32 102.816 9.672 102.564 8.856 102.564C7.56 102.564 6.564 103.044 5.868 104.004C5.172 104.94 4.824 106.284 4.824 108.036C4.824 110.076 5.22 111.672 6.012 112.824C6.804 113.952 7.908 114.516 9.324 114.516C9.972 114.516 10.596 114.42 11.196 114.228C11.82 114.012 12.312 113.82 12.672 113.652C13.056 113.46 13.248 113.364 13.248 113.364L13.5 113.472L14.004 114.912C14.004 114.912 13.824 115.044 13.464 115.308C13.128 115.548 12.684 115.836 12.132 116.172C11.604 116.508 11.04 116.796 10.44 117.036C9.84 117.3 9.3 117.432 8.82 117.432ZM16.409 115.272C17.081 115.2 17.549 115.032 17.813 114.768C18.077 114.48 18.209 114 18.209 113.328V94.932C18.209 94.236 18.101 93.744 17.885 93.456C17.669 93.144 17.297 92.988 16.769 92.988H16.013L15.833 92.844L16.013 91.368C16.637 91.296 17.321 91.2 18.065 91.08C18.833 90.936 19.589 90.804 20.333 90.684C21.077 90.54 21.713 90.408 22.241 90.288L22.457 90.864C22.337 91.032 22.217 91.656 22.097 92.736C21.977 93.792 21.869 95.208 21.773 96.984C21.701 98.76 21.629 100.788 21.557 103.068C21.797 102.852 22.133 102.588 22.565 102.276C23.021 101.94 23.501 101.616 24.005 101.304C24.533 100.968 25.037 100.692 25.517 100.476C25.997 100.26 26.381 100.152 26.669 100.152C28.301 100.152 29.561 100.56 30.449 101.376C31.361 102.168 31.817 103.308 31.817 104.796C31.817 105.132 31.781 105.672 31.709 106.416C31.661 107.136 31.589 107.94 31.493 108.828C31.421 109.716 31.349 110.568 31.277 111.384C31.229 112.176 31.205 112.812 31.205 113.292C31.205 113.964 31.289 114.456 31.457 114.768C31.649 115.056 31.961 115.2 32.393 115.2C32.537 115.2 32.729 115.2 32.969 115.2C33.209 115.176 33.413 115.152 33.581 115.128L33.653 115.272L33.365 117.108C32.909 117.084 32.321 117.06 31.601 117.036C30.905 117.012 30.317 117 29.837 117C29.549 117 29.189 117.012 28.757 117.036C28.325 117.084 27.869 117.132 27.389 117.18C26.909 117.228 26.441 117.288 25.985 117.36L26.165 115.56C26.837 115.392 27.317 115.14 27.605 114.804C27.893 114.444 28.037 113.964 28.037 113.364L28.217 106.632C28.217 105.504 27.989 104.652 27.533 104.076C27.077 103.476 26.405 103.176 25.517 103.176C24.989 103.176 24.341 103.344 23.573 103.68C22.829 104.016 22.145 104.436 21.521 104.94C21.497 105.732 21.473 106.56 21.449 107.424C21.449 108.288 21.437 109.212 21.413 110.196C21.413 111.156 21.413 112.2 21.413 113.328C21.413 114.024 21.509 114.504 21.701 114.768C21.893 115.032 22.193 115.164 22.601 115.164C22.745 115.164 22.925 115.164 23.141 115.164C23.357 115.14 23.549 115.128 23.717 115.128L23.789 115.272L23.465 117.108C22.985 117.084 22.397 117.06 21.701 117.036C21.005 117.012 20.405 117 19.901 117C19.397 117 18.785 117 18.065 117C17.345 117.024 16.709 117.06 16.157 117.108L16.409 115.272ZM48.2361 117.432C47.2281 117.432 46.4361 117.192 45.8601 116.712C45.2841 116.232 44.9481 115.524 44.8521 114.588L44.6361 114.516C44.1081 115.044 43.5801 115.524 43.0521 115.956C42.5481 116.364 42.0921 116.688 41.6841 116.928C41.2761 117.168 40.9401 117.288 40.6761 117.288C39.7641 117.288 38.9481 117.084 38.2281 116.676C37.5081 116.244 36.9441 115.668 36.5361 114.948C36.1281 114.228 35.9241 113.412 35.9241 112.5C35.9241 111.78 36.1041 111.156 36.4641 110.628C36.8241 110.076 37.3041 109.716 37.9041 109.548L44.7801 107.784L44.8161 106.524C44.8161 105.42 44.5401 104.556 43.9881 103.932C43.4601 103.284 42.6921 102.96 41.6841 102.96C41.0121 102.96 40.2921 103.128 39.5241 103.464C38.7801 103.776 38.0721 104.196 37.4001 104.724L37.1841 104.58L36.6441 102.78C37.3161 102.396 38.0601 102 38.8761 101.592C39.6921 101.184 40.4601 100.848 41.1801 100.584C41.9241 100.296 42.4881 100.152 42.8721 100.152C44.0721 100.152 45.0681 100.356 45.8601 100.764C46.6761 101.148 47.2881 101.7 47.6961 102.42C48.1041 103.116 48.3081 103.944 48.3081 104.904C48.3081 105.216 48.2721 105.708 48.2001 106.38C48.1281 107.052 48.0441 107.796 47.9481 108.612C47.8521 109.428 47.7681 110.22 47.6961 110.988C47.6481 111.732 47.6241 112.332 47.6241 112.788C47.6241 113.292 47.7441 113.688 47.9841 113.976C48.2481 114.24 48.5961 114.372 49.0281 114.372C49.3881 114.372 49.7481 114.288 50.1081 114.12C50.4921 113.928 50.7801 113.748 50.9721 113.58L51.5121 114.264C51.2961 114.624 51.0081 115.032 50.6481 115.488C50.3121 115.92 49.9281 116.316 49.4961 116.676C49.0881 117.036 48.6681 117.288 48.2361 117.432ZM41.6121 114.408C42.0201 114.408 42.5001 114.276 43.0521 114.012C43.6041 113.724 44.1081 113.376 44.5641 112.968L44.7081 109.44L40.2801 110.7C39.6561 110.892 39.3441 111.348 39.3441 112.068C39.3441 112.716 39.5481 113.268 39.9561 113.724C40.3881 114.18 40.9401 114.408 41.6121 114.408ZM63.3788 115.56C64.0268 115.392 64.4948 115.14 64.7828 114.804C65.0708 114.444 65.2148 113.964 65.2148 113.364L65.3588 106.632C65.3588 105.504 65.1308 104.652 64.6748 104.076C64.2188 103.476 63.5468 103.176 62.6588 103.176C62.1548 103.176 61.6388 103.284 61.1108 103.5C60.6068 103.692 60.1508 103.92 59.7428 104.184C59.3348 104.424 59.0228 104.628 58.8068 104.796C58.7828 105.444 58.7468 106.188 58.6988 107.028C58.6748 107.868 58.6388 108.708 58.5908 109.548C58.5428 110.388 58.5068 111.156 58.4828 111.852C58.4588 112.524 58.4468 113.016 58.4468 113.328C58.4468 114 58.5428 114.48 58.7348 114.768C58.9268 115.032 59.2388 115.164 59.6708 115.164C59.8628 115.164 60.0908 115.152 60.3548 115.128C60.6428 115.104 60.7868 115.092 60.7868 115.092L60.8588 115.236L60.5348 117.108C60.5348 117.108 60.3308 117.096 59.9228 117.072C59.5388 117.048 59.0708 117.024 58.5188 117C57.9908 117 57.4868 117 57.0068 117C56.4548 117 55.8788 117.012 55.2788 117.036C54.6788 117.084 54.1628 117.12 53.7308 117.144C53.3228 117.192 53.1188 117.216 53.1188 117.216L53.3708 115.38C54.0668 115.284 54.5468 115.092 54.8108 114.804C55.0988 114.492 55.2428 114 55.2428 113.328V105.048C55.2428 104.232 55.1108 103.668 54.8468 103.356C54.6068 103.044 54.1628 102.888 53.5148 102.888H53.0828L52.9388 102.708L53.0828 101.232C54.0428 101.064 54.9548 100.908 55.8188 100.764C56.7068 100.596 57.4268 100.452 57.9788 100.332C58.5548 100.188 58.8428 100.116 58.8428 100.116L59.0948 100.44C59.0948 100.44 59.0348 100.692 58.9148 101.196C58.8188 101.676 58.7468 102.228 58.6988 102.852L58.8068 102.996C59.0468 102.804 59.3948 102.552 59.8508 102.24C60.3068 101.904 60.7868 101.58 61.2908 101.268C61.7948 100.956 62.2748 100.692 62.7308 100.476C63.1868 100.26 63.5468 100.152 63.8108 100.152C65.4188 100.152 66.6788 100.572 67.5908 101.412C68.5028 102.228 68.9588 103.356 68.9588 104.796C68.9588 105.132 68.9228 105.672 68.8508 106.416C68.8028 107.136 68.7428 107.94 68.6708 108.828C68.5988 109.716 68.5268 110.568 68.4548 111.384C68.4068 112.176 68.3828 112.812 68.3828 113.292C68.3828 113.964 68.4788 114.456 68.6708 114.768C68.8628 115.056 69.1748 115.2 69.6068 115.2C69.7988 115.2 70.0388 115.188 70.3268 115.164C70.6388 115.14 70.7948 115.128 70.7948 115.128L70.8668 115.272L70.5428 117.108C70.5428 117.108 70.4228 117.096 70.1828 117.072C69.9668 117.072 69.6668 117.06 69.2828 117.036C68.9228 117.036 68.5388 117.024 68.1308 117C67.7468 117 67.3868 117 67.0508 117C66.6668 117 66.2588 117.012 65.8268 117.036C65.3948 117.084 64.9748 117.132 64.5668 117.18C64.1588 117.228 63.8228 117.264 63.5588 117.288C63.3188 117.336 63.1988 117.36 63.1988 117.36L63.3788 115.56ZM79.4604 125.712C78.2604 125.712 77.2164 125.508 76.3284 125.1C75.4644 124.716 74.7924 124.152 74.3124 123.408C73.8324 122.664 73.5924 121.8 73.5924 120.816C73.9044 120.432 74.3844 119.964 75.0324 119.412C75.6804 118.884 76.3884 118.356 77.1564 117.828V117.612C75.9564 117.396 75.0324 116.988 74.3844 116.388C73.7364 115.764 73.3884 114.972 73.3404 114.012C73.7724 113.58 74.2284 113.172 74.7084 112.788C75.2124 112.38 75.7524 111.996 76.3284 111.636V111.06L78.4524 111.708C77.8044 112.068 77.3364 112.392 77.0484 112.68C76.7604 112.968 76.6164 113.256 76.6164 113.544C76.6164 114 76.9044 114.336 77.4804 114.552C78.0804 114.768 78.8244 114.924 79.7124 115.02C80.6244 115.116 81.5964 115.224 82.6284 115.344C83.6604 115.464 84.6324 115.656 85.5444 115.92C86.4564 116.184 87.2004 116.568 87.7764 117.072C88.3524 117.576 88.6404 118.284 88.6404 119.196C88.6404 120.012 88.3884 120.804 87.8844 121.572C87.3804 122.364 86.6844 123.072 85.7964 123.696C84.9324 124.32 83.9484 124.812 82.8444 125.172C81.7644 125.532 80.6364 125.712 79.4604 125.712ZM80.7564 123.552C81.6204 123.552 82.4124 123.408 83.1324 123.12C83.8524 122.832 84.4284 122.448 84.8604 121.968C85.3164 121.488 85.5444 120.96 85.5444 120.384C85.5444 119.952 85.3764 119.604 85.0404 119.34C84.7284 119.076 84.1044 118.836 83.1684 118.62C82.2324 118.428 80.8524 118.212 79.0284 117.972C78.4284 118.428 77.9724 118.92 77.6604 119.448C77.3484 120 77.1924 120.54 77.1924 121.068C77.1924 121.812 77.5044 122.412 78.1284 122.868C78.7764 123.324 79.6524 123.552 80.7564 123.552ZM80.7564 110.412C81.7644 110.412 82.5444 110.088 83.0964 109.44C83.6484 108.792 83.9244 107.88 83.9244 106.704C83.9244 105.384 83.5884 104.328 82.9164 103.536C82.2684 102.744 81.3924 102.348 80.2884 102.348C79.2804 102.348 78.5004 102.684 77.9484 103.356C77.3964 104.004 77.1204 104.928 77.1204 106.128C77.1204 107.424 77.4444 108.468 78.0924 109.26C78.7644 110.028 79.6524 110.412 80.7564 110.412ZM80.0364 112.356C78.7644 112.356 77.6484 112.128 76.6884 111.672C75.7284 111.192 74.9724 110.532 74.4204 109.692C73.8924 108.828 73.6284 107.844 73.6284 106.74C73.6284 105.492 73.9404 104.376 74.5644 103.392C75.1884 102.408 76.0284 101.616 77.0844 101.016C78.1644 100.416 79.3524 100.116 80.6484 100.116C81.3684 100.116 82.0284 100.188 82.6284 100.332C83.2284 100.452 83.7804 100.512 84.2844 100.512C84.7644 100.464 85.4484 100.344 86.3364 100.152C87.2244 99.936 88.2084 99.672 89.2884 99.36L89.4324 99.54L89.0004 101.88C88.5204 101.952 88.0044 102.012 87.4524 102.06C86.9244 102.084 86.4804 102.12 86.1204 102.168L85.9764 102.348C86.9364 103.38 87.4164 104.592 87.4164 105.984C87.4164 107.184 87.0804 108.264 86.4084 109.224C85.7604 110.184 84.8844 110.952 83.7804 111.528C82.6764 112.08 81.4284 112.356 80.0364 112.356ZM98.7179 117.432C97.1339 117.432 95.7539 117.096 94.5779 116.424C93.4019 115.752 92.4899 114.816 91.8419 113.616C91.1939 112.392 90.8699 110.964 90.8699 109.332C90.8699 108.06 91.0859 106.872 91.5179 105.768C91.9499 104.664 92.5379 103.692 93.2819 102.852C94.0499 102.012 94.9259 101.352 95.9099 100.872C96.8939 100.392 97.9499 100.152 99.0779 100.152C102.87 100.152 104.766 102.024 104.766 105.768C104.766 106.104 104.73 106.452 104.658 106.812C104.61 107.172 104.562 107.46 104.514 107.676L104.082 108.072H94.4339C94.4339 109.992 94.8179 111.504 95.5859 112.608C96.3539 113.712 97.4339 114.336 98.8259 114.48C100.242 114.624 101.898 114.264 103.794 113.4L104.01 113.508L104.514 114.876C104.01 115.236 103.41 115.62 102.714 116.028C102.042 116.412 101.346 116.736 100.626 117C99.9299 117.288 99.2939 117.432 98.7179 117.432ZM94.5059 106.452L100.302 106.164C100.614 106.116 100.818 106.044 100.914 105.948C101.034 105.828 101.094 105.6 101.094 105.264C101.094 104.328 100.866 103.62 100.41 103.14C99.9539 102.66 99.2939 102.42 98.4299 102.42C97.3979 102.42 96.5219 102.78 95.8019 103.5C95.1059 104.196 94.6739 105.18 94.5059 106.452ZM120.232 117.432C118.576 117.432 117.376 117.096 116.632 116.424C115.912 115.728 115.552 114.6 115.552 113.04V104.544C115.552 103.872 115.408 103.404 115.12 103.14C114.856 102.876 114.328 102.732 113.536 102.708L113.32 102.456L113.5 101.088C114.172 100.752 114.82 100.392 115.444 100.008C116.068 99.6 116.62 99.216 117.1 98.856C117.604 98.472 117.988 98.16 118.252 97.92C118.54 97.68 118.684 97.56 118.684 97.56L119.548 97.92C119.548 97.92 119.512 98.172 119.44 98.676C119.368 99.18 119.284 99.9 119.188 100.836L124.012 100.728L124.156 100.836L123.796 102.996L119.044 102.888C118.972 103.968 118.912 105.216 118.864 106.632C118.816 108.048 118.792 109.62 118.792 111.348C118.792 112.476 118.984 113.292 119.368 113.796C119.776 114.276 120.448 114.516 121.384 114.516C121.936 114.516 122.452 114.42 122.932 114.228C123.436 114.012 123.688 113.904 123.688 113.904L124.084 114.948C124.084 114.948 123.928 115.08 123.616 115.344C123.328 115.584 122.956 115.872 122.5 116.208C122.068 116.52 121.636 116.796 121.204 117.036C120.796 117.3 120.472 117.432 120.232 117.432ZM125.85 115.272C126.522 115.2 126.99 115.032 127.254 114.768C127.518 114.48 127.65 114 127.65 113.328V94.932C127.65 94.236 127.542 93.744 127.326 93.456C127.11 93.144 126.738 92.988 126.21 92.988H125.454L125.274 92.844L125.454 91.368C126.078 91.296 126.762 91.2 127.506 91.08C128.274 90.936 129.03 90.804 129.774 90.684C130.518 90.54 131.154 90.408 131.682 90.288L131.898 90.864C131.778 91.032 131.658 91.656 131.538 92.736C131.418 93.792 131.31 95.208 131.214 96.984C131.142 98.76 131.07 100.788 130.998 103.068C131.238 102.852 131.574 102.588 132.006 102.276C132.462 101.94 132.942 101.616 133.446 101.304C133.974 100.968 134.478 100.692 134.958 100.476C135.438 100.26 135.822 100.152 136.11 100.152C137.742 100.152 139.002 100.56 139.89 101.376C140.802 102.168 141.258 103.308 141.258 104.796C141.258 105.132 141.222 105.672 141.15 106.416C141.102 107.136 141.03 107.94 140.934 108.828C140.862 109.716 140.79 110.568 140.718 111.384C140.67 112.176 140.646 112.812 140.646 113.292C140.646 113.964 140.73 114.456 140.898 114.768C141.09 115.056 141.402 115.2 141.834 115.2C141.978 115.2 142.17 115.2 142.41 115.2C142.65 115.176 142.854 115.152 143.022 115.128L143.094 115.272L142.806 117.108C142.35 117.084 141.762 117.06 141.042 117.036C140.346 117.012 139.758 117 139.278 117C138.99 117 138.63 117.012 138.198 117.036C137.766 117.084 137.31 117.132 136.83 117.18C136.35 117.228 135.882 117.288 135.426 117.36L135.606 115.56C136.278 115.392 136.758 115.14 137.046 114.804C137.334 114.444 137.478 113.964 137.478 113.364L137.658 106.632C137.658 105.504 137.43 104.652 136.974 104.076C136.518 103.476 135.846 103.176 134.958 103.176C134.43 103.176 133.782 103.344 133.014 103.68C132.27 104.016 131.586 104.436 130.962 104.94C130.938 105.732 130.914 106.56 130.89 107.424C130.89 108.288 130.878 109.212 130.854 110.196C130.854 111.156 130.854 112.2 130.854 113.328C130.854 114.024 130.95 114.504 131.142 114.768C131.334 115.032 131.634 115.164 132.042 115.164C132.186 115.164 132.366 115.164 132.582 115.164C132.798 115.14 132.99 115.128 133.158 115.128L133.23 115.272L132.906 117.108C132.426 117.084 131.838 117.06 131.142 117.036C130.446 117.012 129.846 117 129.342 117C128.838 117 128.226 117 127.506 117C126.786 117.024 126.15 117.06 125.598 117.108L125.85 115.272ZM153.069 117.432C151.485 117.432 150.105 117.096 148.929 116.424C147.753 115.752 146.841 114.816 146.193 113.616C145.545 112.392 145.221 110.964 145.221 109.332C145.221 108.06 145.437 106.872 145.869 105.768C146.301 104.664 146.889 103.692 147.633 102.852C148.401 102.012 149.277 101.352 150.261 100.872C151.245 100.392 152.301 100.152 153.429 100.152C157.221 100.152 159.117 102.024 159.117 105.768C159.117 106.104 159.081 106.452 159.009 106.812C158.961 107.172 158.913 107.46 158.865 107.676L158.433 108.072H148.785C148.785 109.992 149.169 111.504 149.937 112.608C150.705 113.712 151.785 114.336 153.177 114.48C154.593 114.624 156.249 114.264 158.145 113.4L158.361 113.508L158.865 114.876C158.361 115.236 157.761 115.62 157.065 116.028C156.393 116.412 155.697 116.736 154.977 117C154.281 117.288 153.645 117.432 153.069 117.432ZM148.857 106.452L154.653 106.164C154.965 106.116 155.169 106.044 155.265 105.948C155.385 105.828 155.445 105.6 155.445 105.264C155.445 104.328 155.217 103.62 154.761 103.14C154.305 102.66 153.645 102.42 152.781 102.42C151.749 102.42 150.873 102.78 150.153 103.5C149.457 104.196 149.025 105.18 148.857 106.452ZM167.96 117.396L168.176 115.56C168.8 115.416 169.244 115.212 169.508 114.948C169.772 114.66 169.928 114.3 169.976 113.868C170.048 113.412 170.084 112.836 170.084 112.14V94.932C170.084 94.308 170.024 93.864 169.904 93.6C169.808 93.312 169.592 93.132 169.256 93.06C168.944 92.988 168.476 92.976 167.852 93.024L167.708 92.916L167.888 91.368C168.92 91.248 169.952 91.104 170.984 90.936C172.04 90.744 173.084 90.528 174.116 90.288L174.332 90.864C174.236 91.104 174.128 91.68 174.008 92.592C173.912 93.48 173.816 94.644 173.72 96.084C173.648 97.524 173.576 99.168 173.504 101.016C173.432 102.84 173.372 104.808 173.324 106.92C173.3 109.008 173.288 111.156 173.288 113.364C173.288 114.012 173.372 114.48 173.54 114.768C173.732 115.056 174.044 115.2 174.476 115.2L175.7 115.128L175.772 115.308L175.448 117.108C174.944 117.084 174.344 117.06 173.648 117.036C172.952 117.012 172.352 117 171.848 117C171.392 117 170.804 117.036 170.084 117.108C169.388 117.18 168.68 117.276 167.96 117.396ZM189.845 117.432C188.837 117.432 188.045 117.192 187.469 116.712C186.893 116.232 186.557 115.524 186.461 114.588L186.245 114.516C185.717 115.044 185.189 115.524 184.661 115.956C184.157 116.364 183.701 116.688 183.293 116.928C182.885 117.168 182.549 117.288 182.285 117.288C181.373 117.288 180.557 117.084 179.837 116.676C179.117 116.244 178.553 115.668 178.145 114.948C177.737 114.228 177.533 113.412 177.533 112.5C177.533 111.78 177.713 111.156 178.073 110.628C178.433 110.076 178.913 109.716 179.513 109.548L186.389 107.784L186.425 106.524C186.425 105.42 186.149 104.556 185.597 103.932C185.069 103.284 184.301 102.96 183.293 102.96C182.621 102.96 181.901 103.128 181.133 103.464C180.389 103.776 179.681 104.196 179.009 104.724L178.793 104.58L178.253 102.78C178.925 102.396 179.669 102 180.485 101.592C181.301 101.184 182.069 100.848 182.789 100.584C183.533 100.296 184.097 100.152 184.481 100.152C185.681 100.152 186.677 100.356 187.469 100.764C188.285 101.148 188.897 101.7 189.305 102.42C189.713 103.116 189.917 103.944 189.917 104.904C189.917 105.216 189.881 105.708 189.809 106.38C189.737 107.052 189.653 107.796 189.557 108.612C189.461 109.428 189.377 110.22 189.305 110.988C189.257 111.732 189.233 112.332 189.233 112.788C189.233 113.292 189.353 113.688 189.593 113.976C189.857 114.24 190.205 114.372 190.637 114.372C190.997 114.372 191.357 114.288 191.717 114.12C192.101 113.928 192.389 113.748 192.581 113.58L193.121 114.264C192.905 114.624 192.617 115.032 192.257 115.488C191.921 115.92 191.537 116.316 191.105 116.676C190.697 117.036 190.277 117.288 189.845 117.432ZM183.221 114.408C183.629 114.408 184.109 114.276 184.661 114.012C185.213 113.724 185.717 113.376 186.173 112.968L186.317 109.44L181.889 110.7C181.265 110.892 180.953 111.348 180.953 112.068C180.953 112.716 181.157 113.268 181.565 113.724C181.997 114.18 182.549 114.408 183.221 114.408ZM204.988 115.56C205.636 115.392 206.104 115.14 206.392 114.804C206.68 114.444 206.824 113.964 206.824 113.364L206.968 106.632C206.968 105.504 206.74 104.652 206.284 104.076C205.828 103.476 205.156 103.176 204.268 103.176C203.764 103.176 203.248 103.284 202.72 103.5C202.216 103.692 201.76 103.92 201.352 104.184C200.944 104.424 200.632 104.628 200.416 104.796C200.392 105.444 200.356 106.188 200.308 107.028C200.284 107.868 200.248 108.708 200.2 109.548C200.152 110.388 200.116 111.156 200.092 111.852C200.068 112.524 200.056 113.016 200.056 113.328C200.056 114 200.152 114.48 200.344 114.768C200.536 115.032 200.848 115.164 201.28 115.164C201.472 115.164 201.7 115.152 201.964 115.128C202.252 115.104 202.396 115.092 202.396 115.092L202.468 115.236L202.144 117.108C202.144 117.108 201.94 117.096 201.532 117.072C201.148 117.048 200.68 117.024 200.128 117C199.6 117 199.096 117 198.616 117C198.064 117 197.488 117.012 196.888 117.036C196.288 117.084 195.772 117.12 195.34 117.144C194.932 117.192 194.728 117.216 194.728 117.216L194.98 115.38C195.676 115.284 196.156 115.092 196.42 114.804C196.708 114.492 196.852 114 196.852 113.328V105.048C196.852 104.232 196.72 103.668 196.456 103.356C196.216 103.044 195.772 102.888 195.124 102.888H194.692L194.548 102.708L194.692 101.232C195.652 101.064 196.564 100.908 197.428 100.764C198.316 100.596 199.036 100.452 199.588 100.332C200.164 100.188 200.452 100.116 200.452 100.116L200.704 100.44C200.704 100.44 200.644 100.692 200.524 101.196C200.428 101.676 200.356 102.228 200.308 102.852L200.416 102.996C200.656 102.804 201.004 102.552 201.46 102.24C201.916 101.904 202.396 101.58 202.9 101.268C203.404 100.956 203.884 100.692 204.34 100.476C204.796 100.26 205.156 100.152 205.42 100.152C207.028 100.152 208.288 100.572 209.2 101.412C210.112 102.228 210.568 103.356 210.568 104.796C210.568 105.132 210.532 105.672 210.46 106.416C210.412 107.136 210.352 107.94 210.28 108.828C210.208 109.716 210.136 110.568 210.064 111.384C210.016 112.176 209.992 112.812 209.992 113.292C209.992 113.964 210.088 114.456 210.28 114.768C210.472 115.056 210.784 115.2 211.216 115.2C211.408 115.2 211.648 115.188 211.936 115.164C212.248 115.14 212.404 115.128 212.404 115.128L212.476 115.272L212.152 117.108C212.152 117.108 212.032 117.096 211.792 117.072C211.576 117.072 211.276 117.06 210.892 117.036C210.532 117.036 210.148 117.024 209.74 117C209.356 117 208.996 117 208.66 117C208.276 117 207.868 117.012 207.436 117.036C207.004 117.084 206.584 117.132 206.176 117.18C205.768 117.228 205.432 117.264 205.168 117.288C204.928 117.336 204.808 117.36 204.808 117.36L204.988 115.56ZM221.07 125.712C219.87 125.712 218.826 125.508 217.938 125.1C217.074 124.716 216.402 124.152 215.922 123.408C215.442 122.664 215.202 121.8 215.202 120.816C215.514 120.432 215.994 119.964 216.642 119.412C217.29 118.884 217.998 118.356 218.766 117.828V117.612C217.566 117.396 216.642 116.988 215.994 116.388C215.346 115.764 214.998 114.972 214.95 114.012C215.382 113.58 215.838 113.172 216.318 112.788C216.822 112.38 217.362 111.996 217.938 111.636V111.06L220.062 111.708C219.414 112.068 218.946 112.392 218.658 112.68C218.37 112.968 218.226 113.256 218.226 113.544C218.226 114 218.514 114.336 219.09 114.552C219.69 114.768 220.434 114.924 221.322 115.02C222.234 115.116 223.206 115.224 224.238 115.344C225.27 115.464 226.242 115.656 227.154 115.92C228.066 116.184 228.81 116.568 229.386 117.072C229.962 117.576 230.25 118.284 230.25 119.196C230.25 120.012 229.998 120.804 229.494 121.572C228.99 122.364 228.294 123.072 227.406 123.696C226.542 124.32 225.558 124.812 224.454 125.172C223.374 125.532 222.246 125.712 221.07 125.712ZM222.366 123.552C223.23 123.552 224.022 123.408 224.742 123.12C225.462 122.832 226.038 122.448 226.47 121.968C226.926 121.488 227.154 120.96 227.154 120.384C227.154 119.952 226.986 119.604 226.65 119.34C226.338 119.076 225.714 118.836 224.778 118.62C223.842 118.428 222.462 118.212 220.638 117.972C220.038 118.428 219.582 118.92 219.27 119.448C218.958 120 218.802 120.54 218.802 121.068C218.802 121.812 219.114 122.412 219.738 122.868C220.386 123.324 221.262 123.552 222.366 123.552ZM222.366 110.412C223.374 110.412 224.154 110.088 224.706 109.44C225.258 108.792 225.534 107.88 225.534 106.704C225.534 105.384 225.198 104.328 224.526 103.536C223.878 102.744 223.002 102.348 221.898 102.348C220.89 102.348 220.11 102.684 219.558 103.356C219.006 104.004 218.73 104.928 218.73 106.128C218.73 107.424 219.054 108.468 219.702 109.26C220.374 110.028 221.262 110.412 222.366 110.412ZM221.646 112.356C220.374 112.356 219.258 112.128 218.298 111.672C217.338 111.192 216.582 110.532 216.03 109.692C215.502 108.828 215.238 107.844 215.238 106.74C215.238 105.492 215.55 104.376 216.174 103.392C216.798 102.408 217.638 101.616 218.694 101.016C219.774 100.416 220.962 100.116 222.258 100.116C222.978 100.116 223.638 100.188 224.238 100.332C224.838 100.452 225.39 100.512 225.894 100.512C226.374 100.464 227.058 100.344 227.946 100.152C228.834 99.936 229.818 99.672 230.898 99.36L231.042 99.54L230.61 101.88C230.13 101.952 229.614 102.012 229.062 102.06C228.534 102.084 228.09 102.12 227.73 102.168L227.586 102.348C228.546 103.38 229.026 104.592 229.026 105.984C229.026 107.184 228.69 108.264 228.018 109.224C227.37 110.184 226.494 110.952 225.39 111.528C224.286 112.08 223.038 112.356 221.646 112.356ZM234.422 104.688C234.422 104.064 234.314 103.596 234.098 103.284C233.906 102.972 233.594 102.816 233.162 102.816C232.946 102.816 232.73 102.84 232.514 102.888C232.322 102.912 232.226 102.924 232.226 102.924L232.406 101.268C233.054 101.172 233.714 101.064 234.386 100.944C235.058 100.8 235.682 100.668 236.258 100.548C236.834 100.428 237.302 100.332 237.662 100.26C238.022 100.188 238.202 100.152 238.202 100.152L238.454 100.656C238.334 100.968 238.214 101.484 238.094 102.204C237.998 102.924 237.902 103.776 237.806 104.76C237.71 105.744 237.638 106.788 237.59 107.892C237.542 108.972 237.518 110.052 237.518 111.132C237.518 113.292 238.382 114.372 240.11 114.372C240.806 114.372 241.478 114.18 242.126 113.796C242.774 113.388 243.374 113.004 243.926 112.644V104.724C243.926 104.004 243.806 103.512 243.566 103.248C243.326 102.984 242.87 102.852 242.198 102.852C242.126 102.852 241.982 102.864 241.766 102.888C241.574 102.888 241.478 102.888 241.478 102.888L241.658 101.232C242.378 101.136 243.086 101.028 243.782 100.908C244.502 100.788 245.15 100.68 245.726 100.584C246.326 100.464 246.806 100.368 247.166 100.296C247.55 100.224 247.742 100.188 247.742 100.188L247.994 100.692C247.85 101.052 247.706 101.832 247.562 103.032C247.442 104.232 247.334 105.696 247.238 107.424C247.166 109.128 247.13 110.916 247.13 112.788C247.13 113.292 247.25 113.688 247.49 113.976C247.754 114.24 248.09 114.372 248.498 114.372C248.858 114.372 249.182 114.312 249.47 114.192C249.758 114.048 249.998 113.916 250.19 113.796C250.382 113.652 250.478 113.58 250.478 113.58L251.018 114.228C251.018 114.228 250.91 114.384 250.694 114.696C250.478 115.008 250.19 115.368 249.83 115.776C249.494 116.184 249.122 116.556 248.714 116.892C248.33 117.204 247.958 117.384 247.598 117.432C245.534 117.432 244.394 116.484 244.178 114.588L243.962 114.48C242.906 115.344 241.958 116.052 241.118 116.604C240.278 117.156 239.702 117.432 239.39 117.432C237.734 117.432 236.462 117.06 235.574 116.316C234.686 115.572 234.242 114.492 234.242 113.076L234.422 104.688ZM264.552 117.432C263.544 117.432 262.752 117.192 262.176 116.712C261.6 116.232 261.264 115.524 261.168 114.588L260.952 114.516C260.424 115.044 259.896 115.524 259.368 115.956C258.864 116.364 258.408 116.688 258 116.928C257.592 117.168 257.256 117.288 256.992 117.288C256.08 117.288 255.264 117.084 254.544 116.676C253.824 116.244 253.26 115.668 252.852 114.948C252.444 114.228 252.24 113.412 252.24 112.5C252.24 111.78 252.42 111.156 252.78 110.628C253.14 110.076 253.62 109.716 254.22 109.548L261.096 107.784L261.132 106.524C261.132 105.42 260.856 104.556 260.304 103.932C259.776 103.284 259.008 102.96 258 102.96C257.328 102.96 256.608 103.128 255.84 103.464C255.096 103.776 254.388 104.196 253.716 104.724L253.5 104.58L252.96 102.78C253.632 102.396 254.376 102 255.192 101.592C256.008 101.184 256.776 100.848 257.496 100.584C258.24 100.296 258.804 100.152 259.188 100.152C260.388 100.152 261.384 100.356 262.176 100.764C262.992 101.148 263.604 101.7 264.012 102.42C264.42 103.116 264.624 103.944 264.624 104.904C264.624 105.216 264.588 105.708 264.516 106.38C264.444 107.052 264.36 107.796 264.264 108.612C264.168 109.428 264.084 110.22 264.012 110.988C263.964 111.732 263.94 112.332 263.94 112.788C263.94 113.292 264.06 113.688 264.3 113.976C264.564 114.24 264.912 114.372 265.344 114.372C265.704 114.372 266.064 114.288 266.424 114.12C266.808 113.928 267.096 113.748 267.288 113.58L267.828 114.264C267.612 114.624 267.324 115.032 266.964 115.488C266.628 115.92 266.244 116.316 265.812 116.676C265.404 117.036 264.984 117.288 264.552 117.432ZM257.928 114.408C258.336 114.408 258.816 114.276 259.368 114.012C259.92 113.724 260.424 113.376 260.88 112.968L261.024 109.44L256.596 110.7C255.972 110.892 255.66 111.348 255.66 112.068C255.66 112.716 255.864 113.268 256.272 113.724C256.704 114.18 257.256 114.408 257.928 114.408ZM275.843 125.712C274.643 125.712 273.599 125.508 272.711 125.1C271.847 124.716 271.175 124.152 270.695 123.408C270.215 122.664 269.975 121.8 269.975 120.816C270.287 120.432 270.767 119.964 271.415 119.412C272.063 118.884 272.771 118.356 273.539 117.828V117.612C272.339 117.396 271.415 116.988 270.767 116.388C270.119 115.764 269.771 114.972 269.723 114.012C270.155 113.58 270.611 113.172 271.091 112.788C271.595 112.38 272.135 111.996 272.711 111.636V111.06L274.835 111.708C274.187 112.068 273.719 112.392 273.431 112.68C273.143 112.968 272.999 113.256 272.999 113.544C272.999 114 273.287 114.336 273.863 114.552C274.463 114.768 275.207 114.924 276.095 115.02C277.007 115.116 277.979 115.224 279.011 115.344C280.043 115.464 281.015 115.656 281.927 115.92C282.839 116.184 283.583 116.568 284.159 117.072C284.735 117.576 285.023 118.284 285.023 119.196C285.023 120.012 284.771 120.804 284.267 121.572C283.763 122.364 283.067 123.072 282.179 123.696C281.315 124.32 280.331 124.812 279.227 125.172C278.147 125.532 277.019 125.712 275.843 125.712ZM277.139 123.552C278.003 123.552 278.795 123.408 279.515 123.12C280.235 122.832 280.811 122.448 281.243 121.968C281.699 121.488 281.927 120.96 281.927 120.384C281.927 119.952 281.759 119.604 281.423 119.34C281.111 119.076 280.487 118.836 279.551 118.62C278.615 118.428 277.235 118.212 275.411 117.972C274.811 118.428 274.355 118.92 274.043 119.448C273.731 120 273.575 120.54 273.575 121.068C273.575 121.812 273.887 122.412 274.511 122.868C275.159 123.324 276.035 123.552 277.139 123.552ZM277.139 110.412C278.147 110.412 278.927 110.088 279.479 109.44C280.031 108.792 280.307 107.88 280.307 106.704C280.307 105.384 279.971 104.328 279.299 103.536C278.651 102.744 277.775 102.348 276.671 102.348C275.663 102.348 274.883 102.684 274.331 103.356C273.779 104.004 273.503 104.928 273.503 106.128C273.503 107.424 273.827 108.468 274.475 109.26C275.147 110.028 276.035 110.412 277.139 110.412ZM276.419 112.356C275.147 112.356 274.031 112.128 273.071 111.672C272.111 111.192 271.355 110.532 270.803 109.692C270.275 108.828 270.011 107.844 270.011 106.74C270.011 105.492 270.323 104.376 270.947 103.392C271.571 102.408 272.411 101.616 273.467 101.016C274.547 100.416 275.735 100.116 277.031 100.116C277.751 100.116 278.411 100.188 279.011 100.332C279.611 100.452 280.163 100.512 280.667 100.512C281.147 100.464 281.831 100.344 282.719 100.152C283.607 99.936 284.591 99.672 285.671 99.36L285.815 99.54L285.383 101.88C284.903 101.952 284.387 102.012 283.835 102.06C283.307 102.084 282.863 102.12 282.503 102.168L282.359 102.348C283.319 103.38 283.799 104.592 283.799 105.984C283.799 107.184 283.463 108.264 282.791 109.224C282.143 110.184 281.267 110.952 280.163 111.528C279.059 112.08 277.811 112.356 276.419 112.356ZM295.101 117.432C293.517 117.432 292.137 117.096 290.961 116.424C289.785 115.752 288.873 114.816 288.225 113.616C287.577 112.392 287.253 110.964 287.253 109.332C287.253 108.06 287.469 106.872 287.901 105.768C288.333 104.664 288.921 103.692 289.665 102.852C290.433 102.012 291.309 101.352 292.293 100.872C293.277 100.392 294.333 100.152 295.461 100.152C299.253 100.152 301.149 102.024 301.149 105.768C301.149 106.104 301.113 106.452 301.041 106.812C300.993 107.172 300.945 107.46 300.897 107.676L300.465 108.072H290.817C290.817 109.992 291.201 111.504 291.969 112.608C292.737 113.712 293.817 114.336 295.209 114.48C296.625 114.624 298.281 114.264 300.177 113.4L300.393 113.508L300.897 114.876C300.393 115.236 299.793 115.62 299.097 116.028C298.425 116.412 297.729 116.736 297.009 117C296.313 117.288 295.677 117.432 295.101 117.432ZM290.889 106.452L296.685 106.164C296.997 106.116 297.201 106.044 297.297 105.948C297.417 105.828 297.477 105.6 297.477 105.264C297.477 104.328 297.249 103.62 296.793 103.14C296.337 102.66 295.677 102.42 294.813 102.42C293.781 102.42 292.905 102.78 292.185 103.5C291.489 104.196 291.057 105.18 290.889 106.452ZM306.552 109.404L306.084 109.044L305.616 93.024L305.94 92.556L309.72 91.836L310.152 92.34L308.136 109.08L306.552 109.404ZM306.804 117.396C306.036 117.396 305.46 117.18 305.076 116.748C304.692 116.292 304.5 115.74 304.5 115.092C304.5 114.348 304.728 113.736 305.184 113.256C305.664 112.776 306.276 112.536 307.02 112.536C307.788 112.536 308.364 112.764 308.748 113.22C309.156 113.652 309.36 114.204 309.36 114.876C309.36 115.572 309.132 116.172 308.676 116.676C308.22 117.156 307.596 117.396 306.804 117.396Z" fill="black"/>
</svg>
