<svg width="288" height="126" viewBox="0 0 288 126" fill="none" xmlns="http://www.w3.org/2000/svg">
<path d="M175.38 91.59C165.39 89.16 157.45 82.84 158.17 77.89C158.59 75.03 161 74.14 161 76.85C161 82.47 180.79 88.87 189.39 86.04C191.38 85.38 193 84.54 192.99 84.17C192.99 83.8 189.73 81.49 185.76 79.04C169.74 69.16 162.22 56.6 166.37 46.66C169.79 38.46 179.06 38.41 191.07 46.52C202.1 53.98 207 61.63 207 71.41C207 74.49 207.51 77.2 208.16 77.6C208.81 78 212.58 78.53 216.55 78.79C222.73 79.18 224.56 78.89 229.21 76.76C233.43 74.83 235.06 73.41 236.53 70.39C238.66 66 239.91 52 238.17 52C237.59 52 236.83 52.46 236.48 53.02C235.62 54.42 222.43 61 220.49 61C218.12 61 217.59 58.28 219.42 55.48C220.32 54.1 224.14 50.74 227.91 48C231.68 45.26 235.49 41.9 236.38 40.54C240.07 34.9 242.67 35.15 250.84 41.91C261.67 50.88 263 52.27 263 54.65C263 59.46 257.9 58.99 250.74 53.52C248.2 51.59 245.88 50.38 245.59 50.85C245.3 51.33 245.78 54.54 246.66 58C247.98 63.22 248.05 65.19 247.07 69.57C243.77 84.32 229.83 91.16 209.52 88C201.58 86.77 201.08 86.8 198.26 88.82C192.7 92.77 184.41 93.78 175.38 91.59ZM199.69 70C198.91 63.41 194.61 57.26 187.46 52.51C181.02 48.24 174.41 46.77 173.41 49.37C171.71 53.81 178.58 63.62 187.74 69.8C194.07 74.08 195.57 74.8 198.39 74.92C200.08 74.99 200.21 74.46 199.69 70Z" fill="black"/>
<path d="M7.92 81.432C6.72 81.432 5.676 81.324 4.788 81.108C3.9 80.892 3.204 80.676 2.7 80.46C2.196 80.244 1.944 80.136 1.944 80.136L1.728 79.74C1.728 79.74 1.752 79.572 1.8 79.236C1.848 78.876 1.896 78.42 1.944 77.868C2.016 77.292 2.076 76.632 2.124 75.888C2.196 75.12 2.232 74.328 2.232 73.512L4.428 73.332C4.428 74.868 4.548 76.056 4.788 76.896C5.028 77.712 5.46 78.276 6.084 78.588C6.732 78.9 7.644 79.056 8.82 79.056C10.14 79.056 11.208 78.744 12.024 78.12C12.864 77.496 13.284 76.656 13.284 75.6C13.284 74.856 13.02 74.22 12.492 73.692C11.964 73.164 11.292 72.672 10.476 72.216C9.66 71.76 8.796 71.304 7.884 70.848C6.924 70.368 6 69.84 5.112 69.264C4.224 68.688 3.492 68.016 2.916 67.248C2.364 66.48 2.088 65.556 2.088 64.476C2.088 63.132 2.472 61.944 3.24 60.912C4.008 59.88 5.052 59.064 6.372 58.464C7.716 57.864 9.24 57.564 10.944 57.564C12.072 57.564 13.068 57.636 13.932 57.78C14.796 57.924 15.48 58.08 15.984 58.248C16.488 58.416 16.74 58.5 16.74 58.5L16.884 58.824C16.884 58.824 16.824 59.1 16.704 59.652C16.608 60.204 16.5 60.948 16.38 61.884C16.26 62.82 16.152 63.84 16.056 64.944L14.112 65.124L13.824 64.908C13.824 64.908 13.836 64.764 13.86 64.476C13.908 64.164 13.932 63.768 13.932 63.288C13.932 62.112 13.632 61.296 13.032 60.84C12.456 60.36 11.436 60.12 9.972 60.12C8.796 60.12 7.824 60.42 7.056 61.02C6.288 61.596 5.904 62.328 5.904 63.216C5.904 63.888 6.132 64.488 6.588 65.016C7.044 65.52 7.632 65.988 8.352 66.42C9.096 66.852 9.888 67.272 10.728 67.68C11.76 68.184 12.78 68.736 13.788 69.336C14.796 69.936 15.624 70.632 16.272 71.424C16.944 72.192 17.28 73.152 17.28 74.304C17.28 75.72 16.884 76.968 16.092 78.048C15.324 79.104 14.232 79.932 12.816 80.532C11.424 81.132 9.792 81.432 7.92 81.432ZM27.5617 81.432C25.9777 81.432 24.5977 81.096 23.4217 80.424C22.2457 79.752 21.3337 78.816 20.6857 77.616C20.0377 76.392 19.7137 74.964 19.7137 73.332C19.7137 72.06 19.9297 70.872 20.3617 69.768C20.7937 68.664 21.3817 67.692 22.1257 66.852C22.8937 66.012 23.7697 65.352 24.7537 64.872C25.7377 64.392 26.7937 64.152 27.9217 64.152C31.7137 64.152 33.6097 66.024 33.6097 69.768C33.6097 70.104 33.5737 70.452 33.5017 70.812C33.4537 71.172 33.4057 71.46 33.3577 71.676L32.9257 72.072H23.2777C23.2777 73.992 23.6617 75.504 24.4297 76.608C25.1977 77.712 26.2777 78.336 27.6697 78.48C29.0857 78.624 30.7417 78.264 32.6377 77.4L32.8537 77.508L33.3577 78.876C32.8537 79.236 32.2537 79.62 31.5577 80.028C30.8857 80.412 30.1897 80.736 29.4697 81C28.7737 81.288 28.1377 81.432 27.5617 81.432ZM23.3497 70.452L29.1457 70.164C29.4577 70.116 29.6617 70.044 29.7577 69.948C29.8777 69.828 29.9377 69.6 29.9377 69.264C29.9377 68.328 29.7097 67.62 29.2537 67.14C28.7977 66.66 28.1377 66.42 27.2737 66.42C26.2417 66.42 25.3657 66.78 24.6457 67.5C23.9497 68.196 23.5177 69.18 23.3497 70.452ZM35.667 81.396L35.883 79.56C36.507 79.416 36.951 79.212 37.215 78.948C37.479 78.66 37.635 78.3 37.683 77.868C37.755 77.412 37.791 76.836 37.791 76.14V58.932C37.791 58.308 37.731 57.864 37.611 57.6C37.515 57.312 37.299 57.132 36.963 57.06C36.651 56.988 36.183 56.976 35.559 57.024L35.415 56.916L35.595 55.368C36.627 55.248 37.659 55.104 38.691 54.936C39.747 54.744 40.791 54.528 41.823 54.288L42.039 54.864C41.943 55.104 41.835 55.68 41.715 56.592C41.619 57.48 41.523 58.644 41.427 60.084C41.355 61.524 41.283 63.168 41.211 65.016C41.139 66.84 41.079 68.808 41.031 70.92C41.007 73.008 40.995 75.156 40.995 77.364C40.995 78.012 41.079 78.48 41.247 78.768C41.439 79.056 41.751 79.2 42.183 79.2L43.407 79.128L43.479 79.308L43.155 81.108C42.651 81.084 42.051 81.06 41.355 81.036C40.659 81.012 40.059 81 39.555 81C39.099 81 38.511 81.036 37.791 81.108C37.095 81.18 36.387 81.276 35.667 81.396ZM52.9445 81.432C51.3605 81.432 49.9805 81.096 48.8045 80.424C47.6285 79.752 46.7165 78.816 46.0685 77.616C45.4205 76.392 45.0965 74.964 45.0965 73.332C45.0965 72.06 45.3125 70.872 45.7445 69.768C46.1765 68.664 46.7645 67.692 47.5085 66.852C48.2765 66.012 49.1525 65.352 50.1365 64.872C51.1205 64.392 52.1765 64.152 53.3045 64.152C57.0965 64.152 58.9925 66.024 58.9925 69.768C58.9925 70.104 58.9565 70.452 58.8845 70.812C58.8365 71.172 58.7885 71.46 58.7405 71.676L58.3085 72.072H48.6605C48.6605 73.992 49.0445 75.504 49.8125 76.608C50.5805 77.712 51.6605 78.336 53.0525 78.48C54.4685 78.624 56.1245 78.264 58.0205 77.4L58.2365 77.508L58.7405 78.876C58.2365 79.236 57.6365 79.62 56.9405 80.028C56.2685 80.412 55.5725 80.736 54.8525 81C54.1565 81.288 53.5205 81.432 52.9445 81.432ZM48.7325 70.452L54.5285 70.164C54.8405 70.116 55.0445 70.044 55.1405 69.948C55.2605 69.828 55.3205 69.6 55.3205 69.264C55.3205 68.328 55.0925 67.62 54.6365 67.14C54.1805 66.66 53.5205 66.42 52.6565 66.42C51.6245 66.42 50.7485 66.78 50.0285 67.5C49.3325 68.196 48.9005 69.18 48.7325 70.452ZM69.1481 81.432C67.5881 81.432 66.2321 81.096 65.0801 80.424C63.9281 79.752 63.0281 78.816 62.3801 77.616C61.7561 76.416 61.4441 74.988 61.4441 73.332C61.4441 71.58 61.8161 70.02 62.5601 68.652C63.3041 67.26 64.3121 66.168 65.5841 65.376C66.8801 64.56 68.3441 64.152 69.9761 64.152C70.7921 64.152 71.5241 64.212 72.1721 64.332C72.8441 64.428 73.3721 64.548 73.7561 64.692C74.1401 64.812 74.3321 64.872 74.3321 64.872L74.4761 65.124C74.4761 65.124 74.4161 65.364 74.2961 65.844C74.2001 66.3 74.0921 66.924 73.9721 67.716C73.8521 68.508 73.7561 69.396 73.6841 70.38L71.8481 70.488V69.336C71.8481 68.472 71.6081 67.8 71.1281 67.32C70.6481 66.816 70.0001 66.564 69.1841 66.564C67.8881 66.564 66.8921 67.044 66.1961 68.004C65.5001 68.94 65.1521 70.284 65.1521 72.036C65.1521 74.076 65.5481 75.672 66.3401 76.824C67.1321 77.952 68.2361 78.516 69.6521 78.516C70.3001 78.516 70.9241 78.42 71.5241 78.228C72.1481 78.012 72.6401 77.82 73.0001 77.652C73.3841 77.46 73.5761 77.364 73.5761 77.364L73.8281 77.472L74.3321 78.912C74.3321 78.912 74.1521 79.044 73.7921 79.308C73.4561 79.548 73.0121 79.836 72.4601 80.172C71.9321 80.508 71.3681 80.796 70.7681 81.036C70.1681 81.3 69.6281 81.432 69.1481 81.432ZM83.1074 81.432C81.4514 81.432 80.2514 81.096 79.5074 80.424C78.7874 79.728 78.4274 78.6 78.4274 77.04V68.544C78.4274 67.872 78.2834 67.404 77.9954 67.14C77.7314 66.876 77.2034 66.732 76.4114 66.708L76.1954 66.456L76.3754 65.088C77.0474 64.752 77.6954 64.392 78.3194 64.008C78.9434 63.6 79.4954 63.216 79.9754 62.856C80.4794 62.472 80.8634 62.16 81.1274 61.92C81.4154 61.68 81.5594 61.56 81.5594 61.56L82.4234 61.92C82.4234 61.92 82.3874 62.172 82.3154 62.676C82.2434 63.18 82.1594 63.9 82.0634 64.836L86.8874 64.728L87.0314 64.836L86.6714 66.996L81.9194 66.888C81.8474 67.968 81.7874 69.216 81.7394 70.632C81.6914 72.048 81.6674 73.62 81.6674 75.348C81.6674 76.476 81.8594 77.292 82.2434 77.796C82.6514 78.276 83.3234 78.516 84.2594 78.516C84.8114 78.516 85.3274 78.42 85.8074 78.228C86.3114 78.012 86.5634 77.904 86.5634 77.904L86.9594 78.948C86.9594 78.948 86.8034 79.08 86.4914 79.344C86.2034 79.584 85.8314 79.872 85.3754 80.208C84.9434 80.52 84.5114 80.796 84.0794 81.036C83.6714 81.3 83.3474 81.432 83.1074 81.432ZM0.792 117.396L1.008 115.56C1.632 115.416 2.076 115.212 2.34 114.948C2.604 114.66 2.76 114.3 2.808 113.868C2.88 113.412 2.916 112.836 2.916 112.14V94.932C2.916 94.308 2.856 93.864 2.736 93.6C2.64 93.312 2.424 93.132 2.088 93.06C1.776 92.988 1.308 92.976 0.684 93.024L0.54 92.916L0.72 91.368C1.752 91.248 2.784 91.104 3.816 90.936C4.872 90.744 5.916 90.528 6.948 90.288L7.164 90.864C7.068 91.104 6.96 91.68 6.84 92.592C6.744 93.48 6.648 94.644 6.552 96.084C6.48 97.524 6.408 99.168 6.336 101.016C6.264 102.84 6.204 104.808 6.156 106.92C6.132 109.008 6.12 111.156 6.12 113.364C6.12 114.012 6.204 114.48 6.372 114.768C6.564 115.056 6.876 115.2 7.308 115.2L8.532 115.128L8.604 115.308L8.28 117.108C7.776 117.084 7.176 117.06 6.48 117.036C5.784 117.012 5.184 117 4.68 117C4.224 117 3.636 117.036 2.916 117.108C2.22 117.18 1.512 117.276 0.792 117.396ZM22.6775 117.432C21.6695 117.432 20.8775 117.192 20.3015 116.712C19.7255 116.232 19.3895 115.524 19.2935 114.588L19.0775 114.516C18.5495 115.044 18.0215 115.524 17.4935 115.956C16.9895 116.364 16.5335 116.688 16.1255 116.928C15.7175 117.168 15.3815 117.288 15.1175 117.288C14.2055 117.288 13.3895 117.084 12.6695 116.676C11.9495 116.244 11.3855 115.668 10.9775 114.948C10.5695 114.228 10.3655 113.412 10.3655 112.5C10.3655 111.78 10.5455 111.156 10.9055 110.628C11.2655 110.076 11.7455 109.716 12.3455 109.548L19.2215 107.784L19.2575 106.524C19.2575 105.42 18.9815 104.556 18.4295 103.932C17.9015 103.284 17.1335 102.96 16.1255 102.96C15.4535 102.96 14.7335 103.128 13.9655 103.464C13.2215 103.776 12.5135 104.196 11.8415 104.724L11.6255 104.58L11.0855 102.78C11.7575 102.396 12.5015 102 13.3175 101.592C14.1335 101.184 14.9015 100.848 15.6215 100.584C16.3655 100.296 16.9295 100.152 17.3135 100.152C18.5135 100.152 19.5095 100.356 20.3015 100.764C21.1175 101.148 21.7295 101.7 22.1375 102.42C22.5455 103.116 22.7495 103.944 22.7495 104.904C22.7495 105.216 22.7135 105.708 22.6415 106.38C22.5695 107.052 22.4855 107.796 22.3895 108.612C22.2935 109.428 22.2095 110.22 22.1375 110.988C22.0895 111.732 22.0655 112.332 22.0655 112.788C22.0655 113.292 22.1855 113.688 22.4255 113.976C22.6895 114.24 23.0375 114.372 23.4695 114.372C23.8295 114.372 24.1895 114.288 24.5495 114.12C24.9335 113.928 25.2215 113.748 25.4135 113.58L25.9535 114.264C25.7375 114.624 25.4495 115.032 25.0895 115.488C24.7535 115.92 24.3695 116.316 23.9375 116.676C23.5295 117.036 23.1095 117.288 22.6775 117.432ZM16.0535 114.408C16.4615 114.408 16.9415 114.276 17.4935 114.012C18.0455 113.724 18.5495 113.376 19.0055 112.968L19.1495 109.44L14.7215 110.7C14.0975 110.892 13.7855 111.348 13.7855 112.068C13.7855 112.716 13.9895 113.268 14.3975 113.724C14.8295 114.18 15.3815 114.408 16.0535 114.408ZM37.8203 115.56C38.4683 115.392 38.9363 115.14 39.2243 114.804C39.5123 114.444 39.6563 113.964 39.6563 113.364L39.8003 106.632C39.8003 105.504 39.5723 104.652 39.1163 104.076C38.6603 103.476 37.9883 103.176 37.1003 103.176C36.5963 103.176 36.0803 103.284 35.5523 103.5C35.0483 103.692 34.5923 103.92 34.1843 104.184C33.7763 104.424 33.4643 104.628 33.2483 104.796C33.2243 105.444 33.1883 106.188 33.1403 107.028C33.1163 107.868 33.0803 108.708 33.0323 109.548C32.9843 110.388 32.9483 111.156 32.9243 111.852C32.9003 112.524 32.8883 113.016 32.8883 113.328C32.8883 114 32.9843 114.48 33.1763 114.768C33.3683 115.032 33.6803 115.164 34.1123 115.164C34.3043 115.164 34.5323 115.152 34.7963 115.128C35.0843 115.104 35.2283 115.092 35.2283 115.092L35.3003 115.236L34.9763 117.108C34.9763 117.108 34.7723 117.096 34.3643 117.072C33.9803 117.048 33.5123 117.024 32.9603 117C32.4323 117 31.9283 117 31.4482 117C30.8963 117 30.3203 117.012 29.7203 117.036C29.1203 117.084 28.6043 117.12 28.1723 117.144C27.7643 117.192 27.5603 117.216 27.5603 117.216L27.8123 115.38C28.5083 115.284 28.9883 115.092 29.2523 114.804C29.5403 114.492 29.6843 114 29.6843 113.328V105.048C29.6843 104.232 29.5523 103.668 29.2883 103.356C29.0483 103.044 28.6043 102.888 27.9563 102.888H27.5243L27.3803 102.708L27.5243 101.232C28.4843 101.064 29.3963 100.908 30.2603 100.764C31.1483 100.596 31.8683 100.452 32.4203 100.332C32.9963 100.188 33.2843 100.116 33.2843 100.116L33.5363 100.44C33.5363 100.44 33.4763 100.692 33.3563 101.196C33.2603 101.676 33.1883 102.228 33.1403 102.852L33.2483 102.996C33.4883 102.804 33.8363 102.552 34.2923 102.24C34.7483 101.904 35.2283 101.58 35.7323 101.268C36.2363 100.956 36.7163 100.692 37.1723 100.476C37.6283 100.26 37.9883 100.152 38.2523 100.152C39.8603 100.152 41.1203 100.572 42.0323 101.412C42.9443 102.228 43.4003 103.356 43.4003 104.796C43.4003 105.132 43.3643 105.672 43.2923 106.416C43.2443 107.136 43.1843 107.94 43.1123 108.828C43.0403 109.716 42.9683 110.568 42.8963 111.384C42.8483 112.176 42.8243 112.812 42.8243 113.292C42.8243 113.964 42.9203 114.456 43.1123 114.768C43.3043 115.056 43.6163 115.2 44.0483 115.2C44.2402 115.2 44.4803 115.188 44.7683 115.164C45.0803 115.14 45.2363 115.128 45.2363 115.128L45.3083 115.272L44.9843 117.108C44.9843 117.108 44.8643 117.096 44.6243 117.072C44.4083 117.072 44.1083 117.06 43.7243 117.036C43.3643 117.036 42.9803 117.024 42.5723 117C42.1883 117 41.8283 117 41.4923 117C41.1083 117 40.7003 117.012 40.2683 117.036C39.8363 117.084 39.4163 117.132 39.0083 117.18C38.6003 117.228 38.2643 117.264 38.0003 117.288C37.7603 117.336 37.6403 117.36 37.6403 117.36L37.8203 115.56ZM53.9018 125.712C52.7018 125.712 51.6578 125.508 50.7698 125.1C49.9058 124.716 49.2338 124.152 48.7538 123.408C48.2738 122.664 48.0338 121.8 48.0338 120.816C48.3458 120.432 48.8258 119.964 49.4738 119.412C50.1218 118.884 50.8298 118.356 51.5978 117.828V117.612C50.3978 117.396 49.4738 116.988 48.8258 116.388C48.1778 115.764 47.8298 114.972 47.7818 114.012C48.2138 113.58 48.6698 113.172 49.1498 112.788C49.6538 112.38 50.1938 111.996 50.7698 111.636V111.06L52.8938 111.708C52.2458 112.068 51.7778 112.392 51.4898 112.68C51.2018 112.968 51.0578 113.256 51.0578 113.544C51.0578 114 51.3458 114.336 51.9218 114.552C52.5218 114.768 53.2658 114.924 54.1538 115.02C55.0658 115.116 56.0378 115.224 57.0698 115.344C58.1018 115.464 59.0738 115.656 59.9858 115.92C60.8978 116.184 61.6418 116.568 62.2178 117.072C62.7938 117.576 63.0818 118.284 63.0818 119.196C63.0818 120.012 62.8298 120.804 62.3258 121.572C61.8218 122.364 61.1258 123.072 60.2378 123.696C59.3738 124.32 58.3898 124.812 57.2858 125.172C56.2058 125.532 55.0778 125.712 53.9018 125.712ZM55.1978 123.552C56.0618 123.552 56.8538 123.408 57.5738 123.12C58.2938 122.832 58.8698 122.448 59.3018 121.968C59.7578 121.488 59.9858 120.96 59.9858 120.384C59.9858 119.952 59.8178 119.604 59.4818 119.34C59.1698 119.076 58.5458 118.836 57.6098 118.62C56.6738 118.428 55.2938 118.212 53.4698 117.972C52.8698 118.428 52.4138 118.92 52.1018 119.448C51.7898 120 51.6338 120.54 51.6338 121.068C51.6338 121.812 51.9458 122.412 52.5698 122.868C53.2178 123.324 54.0938 123.552 55.1978 123.552ZM55.1978 110.412C56.2058 110.412 56.9858 110.088 57.5378 109.44C58.0898 108.792 58.3658 107.88 58.3658 106.704C58.3658 105.384 58.0298 104.328 57.3578 103.536C56.7098 102.744 55.8338 102.348 54.7298 102.348C53.7218 102.348 52.9418 102.684 52.3898 103.356C51.8378 104.004 51.5618 104.928 51.5618 106.128C51.5618 107.424 51.8858 108.468 52.5338 109.26C53.2058 110.028 54.0938 110.412 55.1978 110.412ZM54.4778 112.356C53.2058 112.356 52.0898 112.128 51.1298 111.672C50.1698 111.192 49.4138 110.532 48.8618 109.692C48.3338 108.828 48.0698 107.844 48.0698 106.74C48.0698 105.492 48.3818 104.376 49.0058 103.392C49.6298 102.408 50.4698 101.616 51.5258 101.016C52.6058 100.416 53.7938 100.116 55.0898 100.116C55.8098 100.116 56.4698 100.188 57.0698 100.332C57.6698 100.452 58.2218 100.512 58.7258 100.512C59.2058 100.464 59.8898 100.344 60.7778 100.152C61.6658 99.936 62.6498 99.672 63.7298 99.36L63.8738 99.54L63.4418 101.88C62.9618 101.952 62.4458 102.012 61.8938 102.06C61.3658 102.084 60.9218 102.12 60.5618 102.168L60.4178 102.348C61.3778 103.38 61.8578 104.592 61.8578 105.984C61.8578 107.184 61.5218 108.264 60.8498 109.224C60.2018 110.184 59.3258 110.952 58.2218 111.528C57.1178 112.08 55.8698 112.356 54.4778 112.356ZM67.2536 104.688C67.2536 104.064 67.1456 103.596 66.9296 103.284C66.7376 102.972 66.4256 102.816 65.9936 102.816C65.7776 102.816 65.5616 102.84 65.3456 102.888C65.1536 102.912 65.0576 102.924 65.0576 102.924L65.2376 101.268C65.8856 101.172 66.5456 101.064 67.2176 100.944C67.8896 100.8 68.5136 100.668 69.0896 100.548C69.6656 100.428 70.1336 100.332 70.4936 100.26C70.8536 100.188 71.0336 100.152 71.0336 100.152L71.2856 100.656C71.1656 100.968 71.0456 101.484 70.9256 102.204C70.8296 102.924 70.7336 103.776 70.6376 104.76C70.5416 105.744 70.4696 106.788 70.4216 107.892C70.3736 108.972 70.3496 110.052 70.3496 111.132C70.3496 113.292 71.2136 114.372 72.9416 114.372C73.6376 114.372 74.3096 114.18 74.9576 113.796C75.6056 113.388 76.2056 113.004 76.7576 112.644V104.724C76.7576 104.004 76.6376 103.512 76.3976 103.248C76.1576 102.984 75.7016 102.852 75.0296 102.852C74.9576 102.852 74.8136 102.864 74.5976 102.888C74.4056 102.888 74.3096 102.888 74.3096 102.888L74.4896 101.232C75.2096 101.136 75.9176 101.028 76.6136 100.908C77.3336 100.788 77.9816 100.68 78.5576 100.584C79.1576 100.464 79.6376 100.368 79.9976 100.296C80.3816 100.224 80.5736 100.188 80.5736 100.188L80.8256 100.692C80.6816 101.052 80.5376 101.832 80.3936 103.032C80.2736 104.232 80.1656 105.696 80.0696 107.424C79.9976 109.128 79.9616 110.916 79.9616 112.788C79.9616 113.292 80.0816 113.688 80.3216 113.976C80.5856 114.24 80.9216 114.372 81.3296 114.372C81.6896 114.372 82.0136 114.312 82.3016 114.192C82.5896 114.048 82.8296 113.916 83.0216 113.796C83.2136 113.652 83.3096 113.58 83.3096 113.58L83.8496 114.228C83.8496 114.228 83.7416 114.384 83.5256 114.696C83.3096 115.008 83.0216 115.368 82.6616 115.776C82.3256 116.184 81.9536 116.556 81.5456 116.892C81.1616 117.204 80.7896 117.384 80.4296 117.432C78.3656 117.432 77.2256 116.484 77.0096 114.588L76.7936 114.48C75.7376 115.344 74.7896 116.052 73.9496 116.604C73.1096 117.156 72.5336 117.432 72.2216 117.432C70.5656 117.432 69.2936 117.06 68.4056 116.316C67.5176 115.572 67.0736 114.492 67.0736 113.076L67.2536 104.688ZM97.3845 117.432C96.3765 117.432 95.5845 117.192 95.0085 116.712C94.4325 116.232 94.0965 115.524 94.0005 114.588L93.7845 114.516C93.2565 115.044 92.7285 115.524 92.2005 115.956C91.6965 116.364 91.2405 116.688 90.8325 116.928C90.4245 117.168 90.0885 117.288 89.8245 117.288C88.9125 117.288 88.0965 117.084 87.3765 116.676C86.6565 116.244 86.0925 115.668 85.6845 114.948C85.2765 114.228 85.0725 113.412 85.0725 112.5C85.0725 111.78 85.2525 111.156 85.6125 110.628C85.9725 110.076 86.4525 109.716 87.0525 109.548L93.9285 107.784L93.9645 106.524C93.9645 105.42 93.6885 104.556 93.1365 103.932C92.6085 103.284 91.8405 102.96 90.8325 102.96C90.1605 102.96 89.4405 103.128 88.6725 103.464C87.9285 103.776 87.2205 104.196 86.5485 104.724L86.3325 104.58L85.7925 102.78C86.4645 102.396 87.2085 102 88.0245 101.592C88.8405 101.184 89.6085 100.848 90.3285 100.584C91.0725 100.296 91.6365 100.152 92.0205 100.152C93.2205 100.152 94.2165 100.356 95.0085 100.764C95.8245 101.148 96.4365 101.7 96.8445 102.42C97.2525 103.116 97.4565 103.944 97.4565 104.904C97.4565 105.216 97.4205 105.708 97.3485 106.38C97.2765 107.052 97.1925 107.796 97.0965 108.612C97.0005 109.428 96.9165 110.22 96.8445 110.988C96.7965 111.732 96.7725 112.332 96.7725 112.788C96.7725 113.292 96.8925 113.688 97.1325 113.976C97.3965 114.24 97.7445 114.372 98.1765 114.372C98.5365 114.372 98.8965 114.288 99.2565 114.12C99.6405 113.928 99.9285 113.748 100.121 113.58L100.661 114.264C100.445 114.624 100.157 115.032 99.7965 115.488C99.4605 115.92 99.0765 116.316 98.6445 116.676C98.2365 117.036 97.8165 117.288 97.3845 117.432ZM90.7605 114.408C91.1685 114.408 91.6485 114.276 92.2005 114.012C92.7525 113.724 93.2565 113.376 93.7125 112.968L93.8565 109.44L89.4285 110.7C88.8045 110.892 88.4925 111.348 88.4925 112.068C88.4925 112.716 88.6965 113.268 89.1045 113.724C89.5365 114.18 90.0885 114.408 90.7605 114.408ZM108.675 125.712C107.475 125.712 106.431 125.508 105.543 125.1C104.679 124.716 104.007 124.152 103.527 123.408C103.047 122.664 102.807 121.8 102.807 120.816C103.119 120.432 103.599 119.964 104.247 119.412C104.895 118.884 105.603 118.356 106.371 117.828V117.612C105.171 117.396 104.247 116.988 103.599 116.388C102.951 115.764 102.603 114.972 102.555 114.012C102.987 113.58 103.443 113.172 103.923 112.788C104.427 112.38 104.967 111.996 105.543 111.636V111.06L107.667 111.708C107.019 112.068 106.551 112.392 106.263 112.68C105.975 112.968 105.831 113.256 105.831 113.544C105.831 114 106.119 114.336 106.695 114.552C107.295 114.768 108.039 114.924 108.927 115.02C109.839 115.116 110.811 115.224 111.843 115.344C112.875 115.464 113.847 115.656 114.759 115.92C115.671 116.184 116.415 116.568 116.991 117.072C117.567 117.576 117.855 118.284 117.855 119.196C117.855 120.012 117.603 120.804 117.099 121.572C116.595 122.364 115.899 123.072 115.011 123.696C114.147 124.32 113.163 124.812 112.059 125.172C110.979 125.532 109.851 125.712 108.675 125.712ZM109.971 123.552C110.835 123.552 111.627 123.408 112.347 123.12C113.067 122.832 113.643 122.448 114.075 121.968C114.531 121.488 114.759 120.96 114.759 120.384C114.759 119.952 114.591 119.604 114.255 119.34C113.943 119.076 113.319 118.836 112.383 118.62C111.447 118.428 110.067 118.212 108.243 117.972C107.643 118.428 107.187 118.92 106.875 119.448C106.563 120 106.407 120.54 106.407 121.068C106.407 121.812 106.719 122.412 107.343 122.868C107.991 123.324 108.867 123.552 109.971 123.552ZM109.971 110.412C110.979 110.412 111.759 110.088 112.311 109.44C112.863 108.792 113.139 107.88 113.139 106.704C113.139 105.384 112.803 104.328 112.131 103.536C111.483 102.744 110.607 102.348 109.503 102.348C108.495 102.348 107.715 102.684 107.163 103.356C106.611 104.004 106.335 104.928 106.335 106.128C106.335 107.424 106.659 108.468 107.307 109.26C107.979 110.028 108.867 110.412 109.971 110.412ZM109.251 112.356C107.979 112.356 106.863 112.128 105.903 111.672C104.943 111.192 104.187 110.532 103.635 109.692C103.107 108.828 102.843 107.844 102.843 106.74C102.843 105.492 103.155 104.376 103.779 103.392C104.403 102.408 105.243 101.616 106.299 101.016C107.379 100.416 108.567 100.116 109.863 100.116C110.583 100.116 111.243 100.188 111.843 100.332C112.443 100.452 112.995 100.512 113.499 100.512C113.979 100.464 114.663 100.344 115.551 100.152C116.439 99.936 117.423 99.672 118.503 99.36L118.647 99.54L118.215 101.88C117.735 101.952 117.219 102.012 116.667 102.06C116.139 102.084 115.695 102.12 115.335 102.168L115.191 102.348C116.151 103.38 116.631 104.592 116.631 105.984C116.631 107.184 116.295 108.264 115.623 109.224C114.975 110.184 114.099 110.952 112.995 111.528C111.891 112.08 110.643 112.356 109.251 112.356ZM127.933 117.432C126.349 117.432 124.969 117.096 123.793 116.424C122.617 115.752 121.705 114.816 121.057 113.616C120.409 112.392 120.085 110.964 120.085 109.332C120.085 108.06 120.301 106.872 120.733 105.768C121.165 104.664 121.753 103.692 122.497 102.852C123.265 102.012 124.141 101.352 125.125 100.872C126.109 100.392 127.165 100.152 128.293 100.152C132.085 100.152 133.981 102.024 133.981 105.768C133.981 106.104 133.945 106.452 133.873 106.812C133.825 107.172 133.777 107.46 133.729 107.676L133.297 108.072H123.649C123.649 109.992 124.033 111.504 124.801 112.608C125.569 113.712 126.649 114.336 128.041 114.48C129.457 114.624 131.113 114.264 133.009 113.4L133.225 113.508L133.729 114.876C133.225 115.236 132.625 115.62 131.929 116.028C131.257 116.412 130.561 116.736 129.841 117C129.145 117.288 128.509 117.432 127.933 117.432ZM123.721 106.452L129.517 106.164C129.829 106.116 130.033 106.044 130.129 105.948C130.249 105.828 130.309 105.6 130.309 105.264C130.309 104.328 130.081 103.62 129.625 103.14C129.169 102.66 128.509 102.42 127.645 102.42C126.613 102.42 125.737 102.78 125.017 103.5C124.321 104.196 123.889 105.18 123.721 106.452ZM139.384 109.404L138.916 109.044L138.448 93.024L138.772 92.556L142.552 91.836L142.984 92.34L140.968 109.08L139.384 109.404ZM139.636 117.396C138.868 117.396 138.292 117.18 137.908 116.748C137.524 116.292 137.332 115.74 137.332 115.092C137.332 114.348 137.56 113.736 138.016 113.256C138.496 112.776 139.108 112.536 139.852 112.536C140.62 112.536 141.196 112.764 141.58 113.22C141.988 113.652 142.192 114.204 142.192 114.876C142.192 115.572 141.964 116.172 141.508 116.676C141.052 117.156 140.428 117.396 139.636 117.396Z" fill="black"/>
</svg>
