<svg width="535" height="139" viewBox="0 0 535 139" fill="none" xmlns="http://www.w3.org/2000/svg">
<path d="M422.38 91.59C412.39 89.16 404.45 82.84 405.17 77.89C405.59 75.03 408 74.14 408 76.85C408 82.47 427.79 88.87 436.39 86.04C438.38 85.38 440 84.54 439.99 84.17C439.99 83.8 436.73 81.49 432.76 79.04C416.74 69.16 409.22 56.6 413.37 46.66C416.79 38.46 426.06 38.41 438.07 46.52C449.1 53.98 454 61.63 454 71.41C454 74.49 454.51 77.2 455.16 77.6C455.81 78 459.58 78.53 463.55 78.79C469.73 79.18 471.56 78.89 476.21 76.76C480.43 74.83 482.06 73.41 483.53 70.39C485.66 66 486.91 52 485.17 52C484.59 52 483.83 52.46 483.48 53.02C482.62 54.42 469.43 61 467.49 61C465.12 61 464.59 58.28 466.42 55.48C467.32 54.1 471.14 50.74 474.91 48C478.68 45.26 482.49 41.9 483.38 40.54C487.07 34.9 489.67 35.15 497.84 41.91C508.67 50.88 510 52.27 510 54.65C510 59.46 504.9 58.99 497.74 53.52C495.2 51.59 492.88 50.38 492.59 50.85C492.3 51.33 492.78 54.54 493.66 58C494.98 63.22 495.05 65.19 494.07 69.57C490.77 84.32 476.83 91.16 456.52 88C448.58 86.77 448.08 86.8 445.26 88.82C439.7 92.77 431.41 93.78 422.38 91.59ZM446.69 70C445.91 63.41 441.61 57.26 434.46 52.51C428.02 48.24 421.41 46.77 420.41 49.37C418.71 53.81 425.58 63.62 434.74 69.8C441.07 74.08 442.57 74.8 445.39 74.92C447.08 74.99 447.21 74.46 446.69 70Z" fill="black"/>
<path d="M13.986 86.504C11.438 86.504 9.226 85.972 7.35 84.908C5.474 83.844 4.018 82.332 2.982 80.372C1.974 78.412 1.47 76.088 1.47 73.4C1.47 71.216 1.82 69.228 2.52 67.436C3.248 65.616 4.256 64.062 5.544 62.774C6.86 61.458 8.4 60.45 10.164 59.75C11.956 59.022 13.944 58.658 16.128 58.658C16.996 58.658 17.878 58.714 18.774 58.826C19.698 58.91 20.524 59.022 21.252 59.162C22.008 59.302 22.61 59.428 23.058 59.54C23.534 59.624 23.772 59.666 23.772 59.666L23.94 60.044C23.94 60.044 23.87 60.38 23.73 61.052C23.59 61.696 23.436 62.592 23.268 63.74C23.1 64.86 22.974 66.106 22.89 67.478L19.95 67.688C19.95 67.688 19.964 67.464 19.992 67.016C20.048 66.54 20.076 66.05 20.076 65.546C20.076 64.286 19.628 63.348 18.732 62.732C17.836 62.116 16.45 61.808 14.574 61.808C12.866 61.808 11.41 62.214 10.206 63.026C9.002 63.838 8.064 65 7.392 66.512C6.748 67.996 6.426 69.83 6.426 72.014C6.426 74.394 6.776 76.452 7.476 78.188C8.176 79.924 9.156 81.268 10.416 82.22C11.676 83.144 13.174 83.606 14.91 83.606C16.646 83.606 18.018 83.102 19.026 82.094C20.062 81.086 20.804 79.504 21.252 77.348L24.192 77.096C24.192 77.096 24.15 77.32 24.066 77.768C23.982 78.216 23.884 78.804 23.772 79.532C23.66 80.26 23.548 81.058 23.436 81.926C23.324 82.766 23.24 83.592 23.184 84.404L22.89 84.824C22.89 84.824 22.498 84.964 21.714 85.244C20.93 85.524 19.866 85.804 18.522 86.084C17.206 86.364 15.694 86.504 13.986 86.504ZM27.092 86.462L27.344 84.32C28.072 84.152 28.59 83.914 28.898 83.606C29.206 83.27 29.388 82.85 29.444 82.346C29.528 81.814 29.57 81.142 29.57 80.33V60.254C29.57 59.526 29.5 59.008 29.36 58.7C29.248 58.364 28.996 58.154 28.604 58.07C28.24 57.986 27.694 57.972 26.966 58.028L26.798 57.902L27.008 56.096C28.212 55.956 29.416 55.788 30.62 55.592C31.852 55.368 33.07 55.116 34.274 54.836L34.526 55.508C34.414 55.788 34.288 56.46 34.148 57.524C34.036 58.56 33.924 59.918 33.812 61.598C33.728 63.278 33.644 65.196 33.56 67.352C33.476 69.48 33.406 71.776 33.35 74.24C33.322 76.676 33.308 79.182 33.308 81.758C33.308 82.514 33.406 83.06 33.602 83.396C33.826 83.732 34.19 83.9 34.694 83.9L36.122 83.816L36.206 84.026L35.828 86.126C35.24 86.098 34.54 86.07 33.728 86.042C32.916 86.014 32.216 86 31.628 86C31.096 86 30.41 86.042 29.57 86.126C28.758 86.21 27.932 86.322 27.092 86.462ZM38.303 86.504L38.555 84.362C39.395 84.166 39.997 83.858 40.361 83.438C40.725 82.99 40.907 82.402 40.907 81.674V71.72C40.907 70.908 40.781 70.32 40.529 69.956C40.277 69.592 39.857 69.41 39.269 69.41C39.073 69.41 38.849 69.438 38.597 69.494C38.373 69.55 38.261 69.578 38.261 69.578L38.429 67.646C39.269 67.506 40.095 67.366 40.907 67.226C41.719 67.086 42.461 66.946 43.133 66.806C43.805 66.666 44.337 66.554 44.729 66.47C45.149 66.386 45.359 66.344 45.359 66.344L45.653 66.932C45.513 67.212 45.373 67.814 45.233 68.738C45.121 69.662 45.023 70.81 44.939 72.182C44.855 73.526 44.785 75.024 44.729 76.676C44.701 78.3 44.687 79.994 44.687 81.758C44.687 82.486 44.785 83.018 44.981 83.354C45.205 83.69 45.569 83.858 46.073 83.858C46.297 83.858 46.577 83.844 46.913 83.816C47.249 83.788 47.417 83.774 47.417 83.774L47.501 83.984L47.123 86.126C47.123 86.126 46.983 86.112 46.703 86.084C46.451 86.084 46.115 86.07 45.695 86.042C45.275 86.042 44.827 86.028 44.351 86C43.875 86 43.427 86 43.007 86C42.363 86 41.677 86.042 40.949 86.126C40.221 86.21 39.591 86.294 39.059 86.378C38.555 86.462 38.303 86.504 38.303 86.504ZM42.503 62.018C41.691 62.018 41.075 61.766 40.655 61.262C40.263 60.758 40.067 60.17 40.067 59.498C40.067 58.686 40.333 58 40.865 57.44C41.397 56.88 42.083 56.6 42.923 56.6C43.707 56.6 44.309 56.852 44.729 57.356C45.149 57.832 45.359 58.42 45.359 59.12C45.359 59.932 45.093 60.618 44.561 61.178C44.057 61.738 43.371 62.018 42.503 62.018ZM59.1396 86.504C57.3196 86.504 55.7376 86.112 54.3936 85.328C53.0496 84.544 51.9996 83.452 51.2436 82.052C50.5156 80.652 50.1516 78.986 50.1516 77.054C50.1516 75.01 50.5856 73.19 51.4536 71.594C52.3216 69.97 53.4976 68.696 54.9816 67.772C56.4936 66.82 58.2016 66.344 60.1056 66.344C61.0576 66.344 61.9116 66.414 62.6676 66.554C63.4516 66.666 64.0676 66.806 64.5156 66.974C64.9636 67.114 65.1876 67.184 65.1876 67.184L65.3556 67.478C65.3556 67.478 65.2856 67.758 65.1456 68.318C65.0336 68.85 64.9076 69.578 64.7676 70.502C64.6276 71.426 64.5156 72.462 64.4316 73.61L62.2896 73.736V72.392C62.2896 71.384 62.0096 70.6 61.4496 70.04C60.8896 69.452 60.1336 69.158 59.1816 69.158C57.6696 69.158 56.5076 69.718 55.6956 70.838C54.8836 71.93 54.4776 73.498 54.4776 75.542C54.4776 77.922 54.9396 79.784 55.8636 81.128C56.7876 82.444 58.0756 83.102 59.7276 83.102C60.4836 83.102 61.2116 82.99 61.9116 82.766C62.6396 82.514 63.2136 82.29 63.6336 82.094C64.0816 81.87 64.3056 81.758 64.3056 81.758L64.5996 81.884L65.1876 83.564C65.1876 83.564 64.9776 83.718 64.5576 84.026C64.1656 84.306 63.6476 84.642 63.0036 85.034C62.3876 85.426 61.7296 85.762 61.0296 86.042C60.3296 86.35 59.6996 86.504 59.1396 86.504ZM67.9514 84.152C68.6514 84.04 69.1414 83.858 69.4214 83.606C69.7294 83.326 69.9114 82.92 69.9674 82.388C70.0514 81.856 70.0934 81.17 70.0934 80.33V60.254C70.0934 58.77 69.6314 58.014 68.7074 57.986C68.4554 57.958 68.1894 57.972 67.9094 58.028C67.6574 58.056 67.4754 58.07 67.3634 58.07C67.3634 57.93 67.3634 57.804 67.3634 57.692C67.3914 57.58 67.4054 57.482 67.4054 57.398L67.5314 56.096C68.3714 56.012 69.2114 55.9 70.0514 55.76C70.8914 55.592 71.6754 55.438 72.4034 55.298C73.1314 55.158 73.7054 55.046 74.1254 54.962C74.5734 54.878 74.7974 54.836 74.7974 54.836L75.0494 55.508C74.9374 55.704 74.8114 56.306 74.6714 57.314C74.5594 58.322 74.4474 59.666 74.3354 61.346C74.2514 62.998 74.1674 64.902 74.0834 67.058C73.9994 69.214 73.9294 71.538 73.8734 74.03C73.8454 76.522 73.8314 79.098 73.8314 81.758C73.8314 82.542 73.9434 83.102 74.1674 83.438C74.3914 83.746 74.7414 83.9 75.2174 83.9C75.4414 83.9 75.7074 83.886 76.0154 83.858C76.3514 83.83 76.5194 83.816 76.5194 83.816L76.6454 84.026L76.2254 86.168C76.2254 86.168 76.0854 86.154 75.8054 86.126C75.5254 86.098 75.1614 86.07 74.7134 86.042C74.2934 86.042 73.8454 86.028 73.3694 86C72.9214 86 72.4874 86 72.0674 86C71.4514 86 70.7934 86.014 70.0934 86.042C69.4214 86.098 68.8474 86.14 68.3714 86.168C67.9234 86.224 67.6994 86.252 67.6994 86.252L67.9514 84.152ZM74.7134 76.172L74.7974 75.374L79.3754 70.88C79.7394 70.544 79.9774 70.278 80.0894 70.082C80.2294 69.858 80.2994 69.648 80.2994 69.452C80.2994 69.144 80.1174 68.92 79.7534 68.78C79.4174 68.64 78.8574 68.57 78.0734 68.57L77.9474 68.36L78.3254 66.764C78.3254 66.764 78.5774 66.778 79.0814 66.806C79.6134 66.806 80.2294 66.82 80.9294 66.848C81.6574 66.848 82.3154 66.848 82.9034 66.848C83.4914 66.848 84.1074 66.834 84.7514 66.806C85.4234 66.75 85.9834 66.708 86.4314 66.68C86.9074 66.652 87.1454 66.638 87.1454 66.638L87.2714 66.848L86.8934 68.612C85.9414 68.892 84.9894 69.41 84.0374 70.166C83.1134 70.922 82.1894 71.748 81.2654 72.644C80.3694 73.54 79.4874 74.408 78.6194 75.248L82.6514 80.792C83.5194 81.94 84.3174 82.78 85.0454 83.312C85.7734 83.816 86.5574 84.082 87.3974 84.11L87.5234 84.362L87.2714 85.958C87.2714 85.958 87.0614 86 86.6414 86.084C86.2494 86.196 85.8014 86.294 85.2974 86.378C84.8214 86.49 84.4434 86.56 84.1634 86.588C83.8554 86.588 83.5614 86.56 83.2814 86.504C83.0014 86.448 82.7494 86.364 82.5254 86.252C81.9654 86.056 81.4474 85.72 80.9714 85.244C80.4954 84.74 79.9494 84.012 79.3334 83.06L74.7134 76.172ZM97.0735 83.984C97.8575 83.9 98.4035 83.704 98.7115 83.396C99.0195 83.06 99.1735 82.5 99.1735 81.716V60.254C99.1735 59.442 99.0475 58.868 98.7955 58.532C98.5435 58.168 98.1095 57.986 97.4935 57.986H96.6115L96.4015 57.818L96.6115 56.096C97.3395 56.012 98.1375 55.9 99.0055 55.76C99.9015 55.592 100.783 55.438 101.651 55.298C102.519 55.13 103.261 54.976 103.877 54.836L104.129 55.508C103.989 55.704 103.849 56.432 103.709 57.692C103.569 58.924 103.443 60.576 103.331 62.648C103.247 64.72 103.163 67.086 103.079 69.746C103.359 69.494 103.751 69.186 104.255 68.822C104.787 68.43 105.347 68.052 105.935 67.688C106.551 67.296 107.139 66.974 107.699 66.722C108.259 66.47 108.707 66.344 109.043 66.344C110.947 66.344 112.417 66.82 113.453 67.772C114.517 68.696 115.049 70.026 115.049 71.762C115.049 72.154 115.007 72.784 114.923 73.652C114.867 74.492 114.783 75.43 114.671 76.466C114.587 77.502 114.503 78.496 114.419 79.448C114.363 80.372 114.335 81.114 114.335 81.674C114.335 82.458 114.433 83.032 114.629 83.396C114.853 83.732 115.217 83.9 115.721 83.9C115.889 83.9 116.113 83.9 116.393 83.9C116.673 83.872 116.911 83.844 117.107 83.816L117.191 83.984L116.855 86.126C116.323 86.098 115.637 86.07 114.797 86.042C113.985 86.014 113.299 86 112.739 86C112.403 86 111.983 86.014 111.479 86.042C110.975 86.098 110.443 86.154 109.883 86.21C109.323 86.266 108.777 86.336 108.245 86.42L108.455 84.32C109.239 84.124 109.799 83.83 110.135 83.438C110.471 83.018 110.639 82.458 110.639 81.758L110.849 73.904C110.849 72.588 110.583 71.594 110.051 70.922C109.519 70.222 108.735 69.872 107.699 69.872C107.083 69.872 106.327 70.068 105.431 70.46C104.563 70.852 103.765 71.342 103.037 71.93C103.009 72.854 102.981 73.82 102.953 74.828C102.953 75.836 102.939 76.914 102.911 78.062C102.911 79.182 102.911 80.4 102.911 81.716C102.911 82.528 103.023 83.088 103.247 83.396C103.471 83.704 103.821 83.858 104.297 83.858C104.465 83.858 104.675 83.858 104.927 83.858C105.179 83.83 105.403 83.816 105.599 83.816L105.683 83.984L105.305 86.126C104.745 86.098 104.059 86.07 103.247 86.042C102.435 86.014 101.735 86 101.147 86C100.559 86 99.8455 86 99.0055 86C98.1655 86.028 97.4235 86.07 96.7795 86.126L97.0735 83.984ZM128.829 86.504C126.981 86.504 125.371 86.112 123.999 85.328C122.627 84.544 121.563 83.452 120.807 82.052C120.051 80.624 119.673 78.958 119.673 77.054C119.673 75.57 119.925 74.184 120.429 72.896C120.933 71.608 121.619 70.474 122.487 69.494C123.383 68.514 124.405 67.744 125.553 67.184C126.701 66.624 127.933 66.344 129.249 66.344C133.673 66.344 135.885 68.528 135.885 72.896C135.885 73.288 135.843 73.694 135.759 74.114C135.703 74.534 135.647 74.87 135.591 75.122L135.087 75.584H123.831C123.831 77.824 124.279 79.588 125.175 80.876C126.071 82.164 127.331 82.892 128.955 83.06C130.607 83.228 132.539 82.808 134.751 81.8L135.003 81.926L135.591 83.522C135.003 83.942 134.303 84.39 133.491 84.866C132.707 85.314 131.895 85.692 131.055 86C130.243 86.336 129.501 86.504 128.829 86.504ZM123.915 73.694L130.677 73.358C131.041 73.302 131.279 73.218 131.391 73.106C131.531 72.966 131.601 72.7 131.601 72.308C131.601 71.216 131.335 70.39 130.803 69.83C130.271 69.27 129.501 68.99 128.493 68.99C127.289 68.99 126.267 69.41 125.427 70.25C124.615 71.062 124.111 72.21 123.915 73.694ZM139.627 84.11C140.467 84.026 141.027 83.774 141.307 83.354C141.587 82.906 141.727 82.08 141.727 80.876V72.056C141.727 71.104 141.601 70.446 141.349 70.082C141.097 69.69 140.663 69.494 140.047 69.494C139.851 69.494 139.655 69.522 139.459 69.578C139.291 69.606 139.207 69.62 139.207 69.62L138.997 69.326L139.165 67.646C140.201 67.45 141.209 67.254 142.189 67.058C143.197 66.862 144.037 66.694 144.709 66.554C145.381 66.386 145.717 66.302 145.717 66.302L146.053 66.596C146.053 66.596 146.011 66.82 145.927 67.268C145.871 67.688 145.815 68.22 145.759 68.864C145.703 69.48 145.675 70.11 145.675 70.754L145.843 70.88C146.739 69.592 147.719 68.556 148.783 67.772C149.875 66.96 150.869 66.554 151.765 66.554C152.213 66.554 152.549 66.582 152.773 66.638C153.025 66.694 153.151 66.722 153.151 66.722L153.277 66.974C153.277 66.974 153.249 67.184 153.193 67.604C153.137 67.996 153.053 68.528 152.941 69.2C152.857 69.872 152.773 70.614 152.689 71.426C152.633 72.21 152.577 72.966 152.521 73.694L150.421 73.82C150.421 72.588 150.351 71.776 150.211 71.384C150.071 70.992 149.749 70.796 149.245 70.796C148.713 70.796 148.139 71.006 147.523 71.426C146.935 71.846 146.375 72.434 145.843 73.19C145.843 73.19 145.829 73.442 145.801 73.946C145.773 74.45 145.745 75.094 145.717 75.878C145.689 76.634 145.647 77.418 145.591 78.23C145.563 79.042 145.535 79.756 145.507 80.372C145.479 80.988 145.465 81.38 145.465 81.548C145.465 82.388 145.591 82.976 145.843 83.312C146.123 83.62 146.613 83.774 147.313 83.774C147.677 83.774 148.097 83.76 148.573 83.732C149.049 83.676 149.287 83.648 149.287 83.648L149.371 83.858L148.951 86.126C148.951 86.126 148.783 86.112 148.447 86.084C148.139 86.084 147.733 86.07 147.229 86.042C146.725 86.042 146.193 86.028 145.633 86C145.101 86 144.611 86 144.163 86C143.323 86 142.539 86.014 141.811 86.042C141.083 86.07 140.495 86.098 140.047 86.126C139.599 86.154 139.375 86.168 139.375 86.168L139.627 84.11ZM164.144 86.504C162.296 86.504 160.686 86.112 159.314 85.328C157.942 84.544 156.878 83.452 156.122 82.052C155.366 80.624 154.988 78.958 154.988 77.054C154.988 75.57 155.24 74.184 155.744 72.896C156.248 71.608 156.934 70.474 157.802 69.494C158.698 68.514 159.72 67.744 160.868 67.184C162.016 66.624 163.248 66.344 164.564 66.344C168.988 66.344 171.2 68.528 171.2 72.896C171.2 73.288 171.158 73.694 171.074 74.114C171.018 74.534 170.962 74.87 170.906 75.122L170.402 75.584H159.146C159.146 77.824 159.594 79.588 160.49 80.876C161.386 82.164 162.646 82.892 164.27 83.06C165.922 83.228 167.854 82.808 170.066 81.8L170.318 81.926L170.906 83.522C170.318 83.942 169.618 84.39 168.806 84.866C168.022 85.314 167.21 85.692 166.37 86C165.558 86.336 164.816 86.504 164.144 86.504ZM159.23 73.694L165.992 73.358C166.356 73.302 166.594 73.218 166.706 73.106C166.846 72.966 166.916 72.7 166.916 72.308C166.916 71.216 166.65 70.39 166.118 69.83C165.586 69.27 164.816 68.99 163.808 68.99C162.604 68.99 161.582 69.41 160.742 70.25C159.93 71.062 159.426 72.21 159.23 73.694ZM189.244 86.504C187.312 86.504 185.912 86.112 185.044 85.328C184.204 84.516 183.784 83.2 183.784 81.38V71.468C183.784 70.684 183.616 70.138 183.28 69.83C182.972 69.522 182.356 69.354 181.432 69.326L181.18 69.032L181.39 67.436C182.174 67.044 182.93 66.624 183.658 66.176C184.386 65.7 185.03 65.252 185.59 64.832C186.178 64.384 186.626 64.02 186.934 63.74C187.27 63.46 187.438 63.32 187.438 63.32L188.446 63.74C188.446 63.74 188.404 64.034 188.32 64.622C188.236 65.21 188.138 66.05 188.026 67.142L193.654 67.016L193.822 67.142L193.402 69.662L187.858 69.536C187.774 70.796 187.704 72.252 187.648 73.904C187.592 75.556 187.564 77.39 187.564 79.406C187.564 80.722 187.788 81.674 188.236 82.262C188.712 82.822 189.496 83.102 190.588 83.102C191.232 83.102 191.834 82.99 192.394 82.766C192.982 82.514 193.276 82.388 193.276 82.388L193.738 83.606C193.738 83.606 193.556 83.76 193.192 84.068C192.856 84.348 192.422 84.684 191.89 85.076C191.386 85.44 190.882 85.762 190.378 86.042C189.902 86.35 189.524 86.504 189.244 86.504ZM204.408 86.504C202.728 86.504 201.244 86.112 199.956 85.328C198.696 84.544 197.702 83.438 196.974 82.01C196.274 80.582 195.924 78.93 195.924 77.054C195.924 74.982 196.344 73.148 197.184 71.552C198.052 69.928 199.242 68.654 200.754 67.73C202.266 66.806 203.96 66.344 205.836 66.344C207.544 66.344 209.028 66.736 210.288 67.52C211.576 68.304 212.57 69.41 213.27 70.838C213.97 72.238 214.32 73.89 214.32 75.794C214.32 77.838 213.886 79.672 213.018 81.296C212.178 82.92 211.002 84.194 209.49 85.118C208.006 86.042 206.312 86.504 204.408 86.504ZM205.416 83.942C206.816 83.942 207.908 83.382 208.692 82.262C209.504 81.114 209.91 79.518 209.91 77.474C209.91 75.766 209.686 74.296 209.238 73.064C208.818 71.804 208.216 70.838 207.432 70.166C206.676 69.494 205.766 69.158 204.702 69.158C203.33 69.158 202.238 69.732 201.426 70.88C200.642 72.028 200.25 73.624 200.25 75.668C200.25 77.404 200.46 78.888 200.88 80.12C201.3 81.352 201.902 82.304 202.686 82.976C203.47 83.62 204.38 83.942 205.416 83.942ZM10.29 128.504C8.47 128.504 6.888 128.112 5.544 127.328C4.2 126.544 3.15 125.452 2.394 124.052C1.666 122.652 1.302 120.986 1.302 119.054C1.302 117.01 1.736 115.19 2.604 113.594C3.472 111.97 4.648 110.696 6.132 109.772C7.644 108.82 9.352 108.344 11.256 108.344C12.208 108.344 13.062 108.414 13.818 108.554C14.602 108.666 15.218 108.806 15.666 108.974C16.114 109.114 16.338 109.184 16.338 109.184L16.506 109.478C16.506 109.478 16.436 109.758 16.296 110.318C16.184 110.85 16.058 111.578 15.918 112.502C15.778 113.426 15.666 114.462 15.582 115.61L13.44 115.736V114.392C13.44 113.384 13.16 112.6 12.6 112.04C12.04 111.452 11.284 111.158 10.332 111.158C8.82 111.158 7.658 111.718 6.846 112.838C6.034 113.93 5.628 115.498 5.628 117.542C5.628 119.922 6.09 121.784 7.014 123.128C7.938 124.444 9.226 125.102 10.878 125.102C11.634 125.102 12.362 124.99 13.062 124.766C13.79 124.514 14.364 124.29 14.784 124.094C15.232 123.87 15.456 123.758 15.456 123.758L15.75 123.884L16.338 125.564C16.338 125.564 16.128 125.718 15.708 126.026C15.316 126.306 14.798 126.642 14.154 127.034C13.538 127.426 12.88 127.762 12.18 128.042C11.48 128.35 10.85 128.504 10.29 128.504ZM19.1438 125.984C19.9278 125.9 20.4738 125.704 20.7818 125.396C21.0898 125.06 21.2438 124.5 21.2438 123.716V102.254C21.2438 101.442 21.1178 100.868 20.8658 100.532C20.6138 100.168 20.1798 99.986 19.5638 99.986H18.6818L18.4718 99.818L18.6818 98.096C19.4098 98.012 20.2078 97.9 21.0758 97.76C21.9718 97.592 22.8538 97.438 23.7218 97.298C24.5898 97.13 25.3318 96.976 25.9478 96.836L26.1998 97.508C26.0598 97.704 25.9198 98.432 25.7798 99.692C25.6398 100.924 25.5138 102.576 25.4018 104.648C25.3178 106.72 25.2338 109.086 25.1498 111.746C25.4298 111.494 25.8218 111.186 26.3258 110.822C26.8578 110.43 27.4178 110.052 28.0058 109.688C28.6218 109.296 29.2098 108.974 29.7698 108.722C30.3298 108.47 30.7778 108.344 31.1138 108.344C33.0178 108.344 34.4878 108.82 35.5238 109.772C36.5878 110.696 37.1198 112.026 37.1198 113.762C37.1198 114.154 37.0778 114.784 36.9938 115.652C36.9378 116.492 36.8538 117.43 36.7418 118.466C36.6578 119.502 36.5738 120.496 36.4898 121.448C36.4338 122.372 36.4058 123.114 36.4058 123.674C36.4058 124.458 36.5038 125.032 36.6998 125.396C36.9238 125.732 37.2878 125.9 37.7918 125.9C37.9598 125.9 38.1838 125.9 38.4638 125.9C38.7438 125.872 38.9818 125.844 39.1778 125.816L39.2618 125.984L38.9258 128.126C38.3938 128.098 37.7078 128.07 36.8678 128.042C36.0558 128.014 35.3698 128 34.8098 128C34.4738 128 34.0538 128.014 33.5498 128.042C33.0458 128.098 32.5138 128.154 31.9538 128.21C31.3938 128.266 30.8478 128.336 30.3158 128.42L30.5258 126.32C31.3098 126.124 31.8698 125.83 32.2058 125.438C32.5418 125.018 32.7098 124.458 32.7098 123.758L32.9198 115.904C32.9198 114.588 32.6538 113.594 32.1218 112.922C31.5898 112.222 30.8058 111.872 29.7698 111.872C29.1538 111.872 28.3978 112.068 27.5018 112.46C26.6338 112.852 25.8358 113.342 25.1078 113.93C25.0798 114.854 25.0518 115.82 25.0238 116.828C25.0238 117.836 25.0098 118.914 24.9818 120.062C24.9818 121.182 24.9818 122.4 24.9818 123.716C24.9818 124.528 25.0938 125.088 25.3178 125.396C25.5418 125.704 25.8918 125.858 26.3678 125.858C26.5358 125.858 26.7458 125.858 26.9978 125.858C27.2498 125.83 27.4738 125.816 27.6698 125.816L27.7538 125.984L27.3758 128.126C26.8158 128.098 26.1298 128.07 25.3178 128.042C24.5058 128.014 23.8058 128 23.2178 128C22.6298 128 21.9158 128 21.0758 128C20.2358 128.028 19.4938 128.07 18.8498 128.126L19.1438 125.984ZM56.2754 128.504C55.0994 128.504 54.1754 128.224 53.5034 127.664C52.8314 127.104 52.4394 126.278 52.3274 125.186L52.0754 125.102C51.4594 125.718 50.8434 126.278 50.2274 126.782C49.6394 127.258 49.1074 127.636 48.6314 127.916C48.1554 128.196 47.7634 128.336 47.4554 128.336C46.3914 128.336 45.4394 128.098 44.5994 127.622C43.7594 127.118 43.1014 126.446 42.6254 125.606C42.1494 124.766 41.9114 123.814 41.9114 122.75C41.9114 121.91 42.1214 121.182 42.5414 120.566C42.9614 119.922 43.5214 119.502 44.2214 119.306L52.2434 117.248L52.2854 115.778C52.2854 114.49 51.9634 113.482 51.3194 112.754C50.7034 111.998 49.8074 111.62 48.6314 111.62C47.8474 111.62 47.0074 111.816 46.1114 112.208C45.2434 112.572 44.4174 113.062 43.6334 113.678L43.3814 113.51L42.7514 111.41C43.5354 110.962 44.4034 110.5 45.3554 110.024C46.3074 109.548 47.2034 109.156 48.0434 108.848C48.9114 108.512 49.5694 108.344 50.0174 108.344C51.4174 108.344 52.5794 108.582 53.5034 109.058C54.4554 109.506 55.1694 110.15 55.6454 110.99C56.1214 111.802 56.3594 112.768 56.3594 113.888C56.3594 114.252 56.3174 114.826 56.2334 115.61C56.1494 116.394 56.0514 117.262 55.9394 118.214C55.8274 119.166 55.7294 120.09 55.6454 120.986C55.5894 121.854 55.5614 122.554 55.5614 123.086C55.5614 123.674 55.7014 124.136 55.9814 124.472C56.2894 124.78 56.6954 124.934 57.1994 124.934C57.6194 124.934 58.0394 124.836 58.4594 124.64C58.9074 124.416 59.2434 124.206 59.4674 124.01L60.0974 124.808C59.8454 125.228 59.5094 125.704 59.0894 126.236C58.6974 126.74 58.2494 127.202 57.7454 127.622C57.2694 128.042 56.7794 128.336 56.2754 128.504ZM48.5474 124.976C49.0234 124.976 49.5834 124.822 50.2274 124.514C50.8714 124.178 51.4594 123.772 51.9914 123.296L52.1594 119.18L46.9934 120.65C46.2654 120.874 45.9014 121.406 45.9014 122.246C45.9014 123.002 46.1394 123.646 46.6154 124.178C47.1194 124.71 47.7634 124.976 48.5474 124.976ZM73.942 126.32C74.698 126.124 75.244 125.83 75.58 125.438C75.916 125.018 76.084 124.458 76.084 123.758L76.252 115.904C76.252 114.588 75.986 113.594 75.454 112.922C74.922 112.222 74.138 111.872 73.102 111.872C72.514 111.872 71.912 111.998 71.296 112.25C70.708 112.474 70.176 112.74 69.7 113.048C69.224 113.328 68.86 113.566 68.608 113.762C68.58 114.518 68.538 115.386 68.482 116.366C68.454 117.346 68.412 118.326 68.356 119.306C68.3 120.286 68.258 121.182 68.23 121.994C68.202 122.778 68.188 123.352 68.188 123.716C68.188 124.5 68.3 125.06 68.524 125.396C68.748 125.704 69.112 125.858 69.616 125.858C69.84 125.858 70.106 125.844 70.414 125.816C70.75 125.788 70.918 125.774 70.918 125.774L71.002 125.942L70.624 128.126C70.624 128.126 70.386 128.112 69.91 128.084C69.462 128.056 68.916 128.028 68.272 128C67.656 128 67.068 128 66.508 128C65.864 128 65.192 128.014 64.492 128.042C63.792 128.098 63.19 128.14 62.686 128.168C62.21 128.224 61.972 128.252 61.972 128.252L62.266 126.11C63.078 125.998 63.638 125.774 63.946 125.438C64.282 125.074 64.45 124.5 64.45 123.716V114.056C64.45 113.104 64.296 112.446 63.988 112.082C63.708 111.718 63.19 111.536 62.434 111.536H61.93L61.762 111.326L61.93 109.604C63.05 109.408 64.114 109.226 65.122 109.058C66.158 108.862 66.998 108.694 67.642 108.554C68.314 108.386 68.65 108.302 68.65 108.302L68.944 108.68C68.944 108.68 68.874 108.974 68.734 109.562C68.622 110.122 68.538 110.766 68.482 111.494L68.608 111.662C68.888 111.438 69.294 111.144 69.826 110.78C70.358 110.388 70.918 110.01 71.506 109.646C72.094 109.282 72.654 108.974 73.186 108.722C73.718 108.47 74.138 108.344 74.446 108.344C76.322 108.344 77.792 108.834 78.856 109.814C79.92 110.766 80.452 112.082 80.452 113.762C80.452 114.154 80.41 114.784 80.326 115.652C80.27 116.492 80.2 117.43 80.116 118.466C80.032 119.502 79.948 120.496 79.864 121.448C79.808 122.372 79.78 123.114 79.78 123.674C79.78 124.458 79.892 125.032 80.116 125.396C80.34 125.732 80.704 125.9 81.208 125.9C81.432 125.9 81.712 125.886 82.048 125.858C82.412 125.83 82.594 125.816 82.594 125.816L82.678 125.984L82.3 128.126C82.3 128.126 82.16 128.112 81.88 128.084C81.628 128.084 81.278 128.07 80.83 128.042C80.41 128.042 79.962 128.028 79.486 128C79.038 128 78.618 128 78.226 128C77.778 128 77.302 128.014 76.798 128.042C76.294 128.098 75.804 128.154 75.328 128.21C74.852 128.266 74.46 128.308 74.152 128.336C73.872 128.392 73.732 128.42 73.732 128.42L73.942 126.32ZM92.7038 138.164C91.3038 138.164 90.0858 137.926 89.0498 137.45C88.0418 137.002 87.2578 136.344 86.6978 135.476C86.1378 134.608 85.8578 133.6 85.8578 132.452C86.2218 132.004 86.7818 131.458 87.5378 130.814C88.2938 130.198 89.1198 129.582 90.0158 128.966V128.714C88.6158 128.462 87.5378 127.986 86.7818 127.286C86.0258 126.558 85.6198 125.634 85.5638 124.514C86.0678 124.01 86.5998 123.534 87.1598 123.086C87.7478 122.61 88.3778 122.162 89.0498 121.742V121.07L91.5278 121.826C90.7718 122.246 90.2258 122.624 89.8898 122.96C89.5538 123.296 89.3858 123.632 89.3858 123.968C89.3858 124.5 89.7218 124.892 90.3938 125.144C91.0938 125.396 91.9618 125.578 92.9978 125.69C94.0618 125.802 95.1958 125.928 96.3998 126.068C97.6038 126.208 98.7378 126.432 99.8018 126.74C100.866 127.048 101.734 127.496 102.406 128.084C103.078 128.672 103.414 129.498 103.414 130.562C103.414 131.514 103.12 132.438 102.532 133.334C101.944 134.258 101.132 135.084 100.096 135.812C99.0878 136.54 97.9398 137.114 96.6518 137.534C95.3918 137.954 94.0758 138.164 92.7038 138.164ZM94.2158 135.644C95.2238 135.644 96.1478 135.476 96.9878 135.14C97.8278 134.804 98.4998 134.356 99.0038 133.796C99.5358 133.236 99.8018 132.62 99.8018 131.948C99.8018 131.444 99.6058 131.038 99.2138 130.73C98.8498 130.422 98.1218 130.142 97.0298 129.89C95.9378 129.666 94.3278 129.414 92.1998 129.134C91.4998 129.666 90.9678 130.24 90.6038 130.856C90.2398 131.5 90.0578 132.13 90.0578 132.746C90.0578 133.614 90.4218 134.314 91.1498 134.846C91.9058 135.378 92.9278 135.644 94.2158 135.644ZM94.2158 120.314C95.3918 120.314 96.3018 119.936 96.9458 119.18C97.5898 118.424 97.9118 117.36 97.9118 115.988C97.9118 114.448 97.5198 113.216 96.7358 112.292C95.9798 111.368 94.9578 110.906 93.6698 110.906C92.4938 110.906 91.5838 111.298 90.9398 112.082C90.2958 112.838 89.9738 113.916 89.9738 115.316C89.9738 116.828 90.3518 118.046 91.1078 118.97C91.8918 119.866 92.9278 120.314 94.2158 120.314ZM93.3758 122.582C91.8918 122.582 90.5898 122.316 89.4698 121.784C88.3498 121.224 87.4678 120.454 86.8238 119.474C86.2078 118.466 85.8998 117.318 85.8998 116.03C85.8998 114.574 86.2638 113.272 86.9918 112.124C87.7198 110.976 88.6998 110.052 89.9318 109.352C91.1918 108.652 92.5778 108.302 94.0898 108.302C94.9298 108.302 95.6998 108.386 96.3998 108.554C97.0998 108.694 97.7438 108.764 98.3318 108.764C98.8918 108.708 99.6898 108.568 100.726 108.344C101.762 108.092 102.91 107.784 104.17 107.42L104.338 107.63L103.834 110.36C103.274 110.444 102.672 110.514 102.028 110.57C101.412 110.598 100.894 110.64 100.474 110.696L100.306 110.906C101.426 112.11 101.986 113.524 101.986 115.148C101.986 116.548 101.594 117.808 100.81 118.928C100.054 120.048 99.0318 120.944 97.7438 121.616C96.4558 122.26 94.9998 122.582 93.3758 122.582ZM115.171 128.504C113.323 128.504 111.713 128.112 110.341 127.328C108.969 126.544 107.905 125.452 107.149 124.052C106.393 122.624 106.015 120.958 106.015 119.054C106.015 117.57 106.267 116.184 106.771 114.896C107.275 113.608 107.961 112.474 108.829 111.494C109.725 110.514 110.747 109.744 111.895 109.184C113.043 108.624 114.275 108.344 115.591 108.344C120.015 108.344 122.227 110.528 122.227 114.896C122.227 115.288 122.185 115.694 122.101 116.114C122.045 116.534 121.989 116.87 121.933 117.122L121.429 117.584H110.173C110.173 119.824 110.621 121.588 111.517 122.876C112.413 124.164 113.673 124.892 115.297 125.06C116.949 125.228 118.881 124.808 121.093 123.8L121.345 123.926L121.933 125.522C121.345 125.942 120.645 126.39 119.833 126.866C119.049 127.314 118.237 127.692 117.397 128C116.585 128.336 115.843 128.504 115.171 128.504ZM110.257 115.694L117.019 115.358C117.383 115.302 117.621 115.218 117.733 115.106C117.873 114.966 117.943 114.7 117.943 114.308C117.943 113.216 117.677 112.39 117.145 111.83C116.613 111.27 115.843 110.99 114.835 110.99C113.631 110.99 112.609 111.41 111.769 112.25C110.957 113.062 110.453 114.21 110.257 115.694ZM140.271 128.504C138.339 128.504 136.939 128.112 136.071 127.328C135.231 126.516 134.811 125.2 134.811 123.38V113.468C134.811 112.684 134.643 112.138 134.307 111.83C133.999 111.522 133.383 111.354 132.459 111.326L132.207 111.032L132.417 109.436C133.201 109.044 133.957 108.624 134.685 108.176C135.413 107.7 136.057 107.252 136.617 106.832C137.205 106.384 137.653 106.02 137.961 105.74C138.297 105.46 138.465 105.32 138.465 105.32L139.473 105.74C139.473 105.74 139.431 106.034 139.347 106.622C139.263 107.21 139.165 108.05 139.053 109.142L144.681 109.016L144.849 109.142L144.429 111.662L138.885 111.536C138.801 112.796 138.731 114.252 138.675 115.904C138.619 117.556 138.591 119.39 138.591 121.406C138.591 122.722 138.815 123.674 139.263 124.262C139.739 124.822 140.523 125.102 141.615 125.102C142.259 125.102 142.861 124.99 143.421 124.766C144.009 124.514 144.303 124.388 144.303 124.388L144.765 125.606C144.765 125.606 144.583 125.76 144.219 126.068C143.883 126.348 143.449 126.684 142.917 127.076C142.413 127.44 141.909 127.762 141.405 128.042C140.929 128.35 140.551 128.504 140.271 128.504ZM146.825 125.984C147.609 125.9 148.155 125.704 148.463 125.396C148.771 125.06 148.925 124.5 148.925 123.716V102.254C148.925 101.442 148.799 100.868 148.547 100.532C148.295 100.168 147.861 99.986 147.245 99.986H146.363L146.153 99.818L146.363 98.096C147.091 98.012 147.889 97.9 148.757 97.76C149.653 97.592 150.535 97.438 151.403 97.298C152.271 97.13 153.013 96.976 153.629 96.836L153.881 97.508C153.741 97.704 153.601 98.432 153.461 99.692C153.321 100.924 153.195 102.576 153.083 104.648C152.999 106.72 152.915 109.086 152.831 111.746C153.111 111.494 153.503 111.186 154.007 110.822C154.539 110.43 155.099 110.052 155.687 109.688C156.303 109.296 156.891 108.974 157.451 108.722C158.011 108.47 158.459 108.344 158.795 108.344C160.699 108.344 162.169 108.82 163.205 109.772C164.269 110.696 164.801 112.026 164.801 113.762C164.801 114.154 164.759 114.784 164.675 115.652C164.619 116.492 164.535 117.43 164.423 118.466C164.339 119.502 164.255 120.496 164.171 121.448C164.115 122.372 164.087 123.114 164.087 123.674C164.087 124.458 164.185 125.032 164.381 125.396C164.605 125.732 164.969 125.9 165.473 125.9C165.641 125.9 165.865 125.9 166.145 125.9C166.425 125.872 166.663 125.844 166.859 125.816L166.943 125.984L166.607 128.126C166.075 128.098 165.389 128.07 164.549 128.042C163.737 128.014 163.051 128 162.491 128C162.155 128 161.735 128.014 161.231 128.042C160.727 128.098 160.195 128.154 159.635 128.21C159.075 128.266 158.529 128.336 157.997 128.42L158.207 126.32C158.991 126.124 159.551 125.83 159.887 125.438C160.223 125.018 160.391 124.458 160.391 123.758L160.601 115.904C160.601 114.588 160.335 113.594 159.803 112.922C159.271 112.222 158.487 111.872 157.451 111.872C156.835 111.872 156.079 112.068 155.183 112.46C154.315 112.852 153.517 113.342 152.789 113.93C152.761 114.854 152.733 115.82 152.705 116.828C152.705 117.836 152.691 118.914 152.663 120.062C152.663 121.182 152.663 122.4 152.663 123.716C152.663 124.528 152.775 125.088 152.999 125.396C153.223 125.704 153.573 125.858 154.049 125.858C154.217 125.858 154.427 125.858 154.679 125.858C154.931 125.83 155.155 125.816 155.351 125.816L155.435 125.984L155.057 128.126C154.497 128.098 153.811 128.07 152.999 128.042C152.187 128.014 151.487 128 150.899 128C150.311 128 149.597 128 148.757 128C147.917 128.028 147.175 128.07 146.531 128.126L146.825 125.984ZM178.581 128.504C176.733 128.504 175.123 128.112 173.751 127.328C172.379 126.544 171.315 125.452 170.559 124.052C169.803 122.624 169.425 120.958 169.425 119.054C169.425 117.57 169.677 116.184 170.181 114.896C170.685 113.608 171.371 112.474 172.239 111.494C173.135 110.514 174.157 109.744 175.305 109.184C176.453 108.624 177.685 108.344 179.001 108.344C183.425 108.344 185.637 110.528 185.637 114.896C185.637 115.288 185.595 115.694 185.511 116.114C185.455 116.534 185.399 116.87 185.343 117.122L184.839 117.584H173.583C173.583 119.824 174.031 121.588 174.927 122.876C175.823 124.164 177.083 124.892 178.707 125.06C180.359 125.228 182.291 124.808 184.503 123.8L184.755 123.926L185.343 125.522C184.755 125.942 184.055 126.39 183.243 126.866C182.459 127.314 181.647 127.692 180.807 128C179.995 128.336 179.253 128.504 178.581 128.504ZM173.667 115.694L180.429 115.358C180.793 115.302 181.031 115.218 181.143 115.106C181.283 114.966 181.353 114.7 181.353 114.308C181.353 113.216 181.087 112.39 180.555 111.83C180.023 111.27 179.253 110.99 178.245 110.99C177.041 110.99 176.019 111.41 175.179 112.25C174.367 113.062 173.863 114.21 173.667 115.694ZM195.953 128.462L196.205 126.32C196.933 126.152 197.451 125.914 197.759 125.606C198.067 125.27 198.249 124.85 198.305 124.346C198.389 123.814 198.431 123.142 198.431 122.33V102.254C198.431 101.526 198.361 101.008 198.221 100.7C198.109 100.364 197.857 100.154 197.465 100.07C197.101 99.986 196.555 99.972 195.827 100.028L195.659 99.902L195.869 98.096C197.073 97.956 198.277 97.788 199.481 97.592C200.713 97.368 201.931 97.116 203.135 96.836L203.387 97.508C203.275 97.788 203.149 98.46 203.009 99.524C202.897 100.56 202.785 101.918 202.673 103.598C202.589 105.278 202.505 107.196 202.421 109.352C202.337 111.48 202.267 113.776 202.211 116.24C202.183 118.676 202.169 121.182 202.169 123.758C202.169 124.514 202.267 125.06 202.463 125.396C202.687 125.732 203.051 125.9 203.555 125.9L204.983 125.816L205.067 126.026L204.689 128.126C204.101 128.098 203.401 128.07 202.589 128.042C201.777 128.014 201.077 128 200.489 128C199.957 128 199.271 128.042 198.431 128.126C197.619 128.21 196.793 128.322 195.953 128.462ZM221.486 128.504C220.31 128.504 219.386 128.224 218.714 127.664C218.042 127.104 217.65 126.278 217.538 125.186L217.286 125.102C216.67 125.718 216.054 126.278 215.438 126.782C214.85 127.258 214.318 127.636 213.842 127.916C213.366 128.196 212.974 128.336 212.666 128.336C211.602 128.336 210.65 128.098 209.81 127.622C208.97 127.118 208.312 126.446 207.836 125.606C207.36 124.766 207.122 123.814 207.122 122.75C207.122 121.91 207.332 121.182 207.752 120.566C208.172 119.922 208.732 119.502 209.432 119.306L217.454 117.248L217.496 115.778C217.496 114.49 217.174 113.482 216.53 112.754C215.914 111.998 215.018 111.62 213.842 111.62C213.058 111.62 212.218 111.816 211.322 112.208C210.454 112.572 209.628 113.062 208.844 113.678L208.592 113.51L207.962 111.41C208.746 110.962 209.614 110.5 210.566 110.024C211.518 109.548 212.414 109.156 213.254 108.848C214.122 108.512 214.78 108.344 215.228 108.344C216.628 108.344 217.79 108.582 218.714 109.058C219.666 109.506 220.38 110.15 220.856 110.99C221.332 111.802 221.57 112.768 221.57 113.888C221.57 114.252 221.528 114.826 221.444 115.61C221.36 116.394 221.262 117.262 221.15 118.214C221.038 119.166 220.94 120.09 220.856 120.986C220.8 121.854 220.772 122.554 220.772 123.086C220.772 123.674 220.912 124.136 221.192 124.472C221.5 124.78 221.906 124.934 222.41 124.934C222.83 124.934 223.25 124.836 223.67 124.64C224.118 124.416 224.454 124.206 224.678 124.01L225.308 124.808C225.056 125.228 224.72 125.704 224.3 126.236C223.908 126.74 223.46 127.202 222.956 127.622C222.48 128.042 221.99 128.336 221.486 128.504ZM213.758 124.976C214.234 124.976 214.794 124.822 215.438 124.514C216.082 124.178 216.67 123.772 217.202 123.296L217.37 119.18L212.204 120.65C211.476 120.874 211.112 121.406 211.112 122.246C211.112 123.002 211.35 123.646 211.826 124.178C212.33 124.71 212.974 124.976 213.758 124.976ZM239.153 126.32C239.909 126.124 240.455 125.83 240.791 125.438C241.127 125.018 241.295 124.458 241.295 123.758L241.463 115.904C241.463 114.588 241.197 113.594 240.665 112.922C240.133 112.222 239.349 111.872 238.313 111.872C237.725 111.872 237.123 111.998 236.507 112.25C235.919 112.474 235.387 112.74 234.911 113.048C234.435 113.328 234.071 113.566 233.819 113.762C233.791 114.518 233.749 115.386 233.693 116.366C233.665 117.346 233.623 118.326 233.567 119.306C233.511 120.286 233.469 121.182 233.441 121.994C233.413 122.778 233.399 123.352 233.399 123.716C233.399 124.5 233.511 125.06 233.735 125.396C233.959 125.704 234.323 125.858 234.827 125.858C235.051 125.858 235.317 125.844 235.625 125.816C235.961 125.788 236.129 125.774 236.129 125.774L236.213 125.942L235.835 128.126C235.835 128.126 235.597 128.112 235.121 128.084C234.673 128.056 234.127 128.028 233.483 128C232.867 128 232.279 128 231.719 128C231.075 128 230.403 128.014 229.703 128.042C229.003 128.098 228.401 128.14 227.897 128.168C227.421 128.224 227.183 128.252 227.183 128.252L227.477 126.11C228.289 125.998 228.849 125.774 229.157 125.438C229.493 125.074 229.661 124.5 229.661 123.716V114.056C229.661 113.104 229.507 112.446 229.199 112.082C228.919 111.718 228.401 111.536 227.645 111.536H227.141L226.973 111.326L227.141 109.604C228.261 109.408 229.325 109.226 230.333 109.058C231.369 108.862 232.209 108.694 232.853 108.554C233.525 108.386 233.861 108.302 233.861 108.302L234.155 108.68C234.155 108.68 234.085 108.974 233.945 109.562C233.833 110.122 233.749 110.766 233.693 111.494L233.819 111.662C234.099 111.438 234.505 111.144 235.037 110.78C235.569 110.388 236.129 110.01 236.717 109.646C237.305 109.282 237.865 108.974 238.397 108.722C238.929 108.47 239.349 108.344 239.657 108.344C241.533 108.344 243.003 108.834 244.067 109.814C245.131 110.766 245.663 112.082 245.663 113.762C245.663 114.154 245.621 114.784 245.537 115.652C245.481 116.492 245.411 117.43 245.327 118.466C245.243 119.502 245.159 120.496 245.075 121.448C245.019 122.372 244.991 123.114 244.991 123.674C244.991 124.458 245.103 125.032 245.327 125.396C245.551 125.732 245.915 125.9 246.419 125.9C246.643 125.9 246.923 125.886 247.259 125.858C247.623 125.83 247.805 125.816 247.805 125.816L247.889 125.984L247.511 128.126C247.511 128.126 247.371 128.112 247.091 128.084C246.839 128.084 246.489 128.07 246.041 128.042C245.621 128.042 245.173 128.028 244.697 128C244.249 128 243.829 128 243.437 128C242.989 128 242.513 128.014 242.009 128.042C241.505 128.098 241.015 128.154 240.539 128.21C240.063 128.266 239.671 128.308 239.363 128.336C239.083 128.392 238.943 128.42 238.943 128.42L239.153 126.32ZM257.915 138.164C256.515 138.164 255.297 137.926 254.261 137.45C253.253 137.002 252.469 136.344 251.909 135.476C251.349 134.608 251.069 133.6 251.069 132.452C251.433 132.004 251.993 131.458 252.749 130.814C253.505 130.198 254.331 129.582 255.227 128.966V128.714C253.827 128.462 252.749 127.986 251.993 127.286C251.237 126.558 250.831 125.634 250.775 124.514C251.279 124.01 251.811 123.534 252.371 123.086C252.959 122.61 253.589 122.162 254.261 121.742V121.07L256.739 121.826C255.983 122.246 255.437 122.624 255.101 122.96C254.765 123.296 254.597 123.632 254.597 123.968C254.597 124.5 254.933 124.892 255.605 125.144C256.305 125.396 257.173 125.578 258.209 125.69C259.273 125.802 260.407 125.928 261.611 126.068C262.815 126.208 263.949 126.432 265.013 126.74C266.077 127.048 266.945 127.496 267.617 128.084C268.289 128.672 268.625 129.498 268.625 130.562C268.625 131.514 268.331 132.438 267.743 133.334C267.155 134.258 266.343 135.084 265.307 135.812C264.299 136.54 263.151 137.114 261.863 137.534C260.603 137.954 259.287 138.164 257.915 138.164ZM259.427 135.644C260.435 135.644 261.359 135.476 262.199 135.14C263.039 134.804 263.711 134.356 264.215 133.796C264.747 133.236 265.013 132.62 265.013 131.948C265.013 131.444 264.817 131.038 264.425 130.73C264.061 130.422 263.333 130.142 262.241 129.89C261.149 129.666 259.539 129.414 257.411 129.134C256.711 129.666 256.179 130.24 255.815 130.856C255.451 131.5 255.269 132.13 255.269 132.746C255.269 133.614 255.633 134.314 256.361 134.846C257.117 135.378 258.139 135.644 259.427 135.644ZM259.427 120.314C260.603 120.314 261.513 119.936 262.157 119.18C262.801 118.424 263.123 117.36 263.123 115.988C263.123 114.448 262.731 113.216 261.947 112.292C261.191 111.368 260.169 110.906 258.881 110.906C257.705 110.906 256.795 111.298 256.151 112.082C255.507 112.838 255.185 113.916 255.185 115.316C255.185 116.828 255.563 118.046 256.319 118.97C257.103 119.866 258.139 120.314 259.427 120.314ZM258.587 122.582C257.103 122.582 255.801 122.316 254.681 121.784C253.561 121.224 252.679 120.454 252.035 119.474C251.419 118.466 251.111 117.318 251.111 116.03C251.111 114.574 251.475 113.272 252.203 112.124C252.931 110.976 253.911 110.052 255.143 109.352C256.403 108.652 257.789 108.302 259.301 108.302C260.141 108.302 260.911 108.386 261.611 108.554C262.311 108.694 262.955 108.764 263.543 108.764C264.103 108.708 264.901 108.568 265.937 108.344C266.973 108.092 268.121 107.784 269.381 107.42L269.549 107.63L269.045 110.36C268.485 110.444 267.883 110.514 267.239 110.57C266.623 110.598 266.105 110.64 265.685 110.696L265.517 110.906C266.637 112.11 267.197 113.524 267.197 115.148C267.197 116.548 266.805 117.808 266.021 118.928C265.265 120.048 264.243 120.944 262.955 121.616C261.667 122.26 260.211 122.582 258.587 122.582ZM273.492 113.636C273.492 112.908 273.366 112.362 273.114 111.998C272.89 111.634 272.526 111.452 272.022 111.452C271.77 111.452 271.518 111.48 271.266 111.536C271.042 111.564 270.93 111.578 270.93 111.578L271.14 109.646C271.896 109.534 272.666 109.408 273.45 109.268C274.234 109.1 274.962 108.946 275.634 108.806C276.306 108.666 276.852 108.554 277.272 108.47C277.692 108.386 277.902 108.344 277.902 108.344L278.196 108.932C278.056 109.296 277.916 109.898 277.776 110.738C277.664 111.578 277.552 112.572 277.44 113.72C277.328 114.868 277.244 116.086 277.188 117.374C277.132 118.634 277.104 119.894 277.104 121.154C277.104 123.674 278.112 124.934 280.128 124.934C280.94 124.934 281.724 124.71 282.48 124.262C283.236 123.786 283.936 123.338 284.58 122.918V113.678C284.58 112.838 284.44 112.264 284.16 111.956C283.88 111.648 283.348 111.494 282.564 111.494C282.48 111.494 282.312 111.508 282.06 111.536C281.836 111.536 281.724 111.536 281.724 111.536L281.934 109.604C282.774 109.492 283.6 109.366 284.412 109.226C285.252 109.086 286.008 108.96 286.68 108.848C287.38 108.708 287.94 108.596 288.36 108.512C288.808 108.428 289.032 108.386 289.032 108.386L289.326 108.974C289.158 109.394 288.99 110.304 288.822 111.704C288.682 113.104 288.556 114.812 288.444 116.828C288.36 118.816 288.318 120.902 288.318 123.086C288.318 123.674 288.458 124.136 288.738 124.472C289.046 124.78 289.438 124.934 289.914 124.934C290.334 124.934 290.712 124.864 291.048 124.724C291.384 124.556 291.664 124.402 291.888 124.262C292.112 124.094 292.224 124.01 292.224 124.01L292.854 124.766C292.854 124.766 292.728 124.948 292.476 125.312C292.224 125.676 291.888 126.096 291.468 126.572C291.076 127.048 290.642 127.482 290.166 127.874C289.718 128.238 289.284 128.448 288.864 128.504C286.456 128.504 285.126 127.398 284.874 125.186L284.622 125.06C283.39 126.068 282.284 126.894 281.304 127.538C280.324 128.182 279.652 128.504 279.288 128.504C277.356 128.504 275.872 128.07 274.836 127.202C273.8 126.334 273.282 125.074 273.282 123.422L273.492 113.636ZM308.645 128.504C307.469 128.504 306.545 128.224 305.873 127.664C305.201 127.104 304.809 126.278 304.697 125.186L304.445 125.102C303.829 125.718 303.213 126.278 302.597 126.782C302.009 127.258 301.477 127.636 301.001 127.916C300.525 128.196 300.133 128.336 299.825 128.336C298.761 128.336 297.809 128.098 296.969 127.622C296.129 127.118 295.471 126.446 294.995 125.606C294.519 124.766 294.281 123.814 294.281 122.75C294.281 121.91 294.491 121.182 294.911 120.566C295.331 119.922 295.891 119.502 296.591 119.306L304.613 117.248L304.655 115.778C304.655 114.49 304.333 113.482 303.689 112.754C303.073 111.998 302.177 111.62 301.001 111.62C300.217 111.62 299.377 111.816 298.481 112.208C297.613 112.572 296.787 113.062 296.003 113.678L295.751 113.51L295.121 111.41C295.905 110.962 296.773 110.5 297.725 110.024C298.677 109.548 299.573 109.156 300.413 108.848C301.281 108.512 301.939 108.344 302.387 108.344C303.787 108.344 304.949 108.582 305.873 109.058C306.825 109.506 307.539 110.15 308.015 110.99C308.491 111.802 308.729 112.768 308.729 113.888C308.729 114.252 308.687 114.826 308.603 115.61C308.519 116.394 308.421 117.262 308.309 118.214C308.197 119.166 308.099 120.09 308.015 120.986C307.959 121.854 307.931 122.554 307.931 123.086C307.931 123.674 308.071 124.136 308.351 124.472C308.659 124.78 309.065 124.934 309.569 124.934C309.989 124.934 310.409 124.836 310.829 124.64C311.277 124.416 311.613 124.206 311.837 124.01L312.467 124.808C312.215 125.228 311.879 125.704 311.459 126.236C311.067 126.74 310.619 127.202 310.115 127.622C309.639 128.042 309.149 128.336 308.645 128.504ZM300.917 124.976C301.393 124.976 301.953 124.822 302.597 124.514C303.241 124.178 303.829 123.772 304.361 123.296L304.529 119.18L299.363 120.65C298.635 120.874 298.271 121.406 298.271 122.246C298.271 123.002 298.509 123.646 298.985 124.178C299.489 124.71 300.133 124.976 300.917 124.976ZM321.817 138.164C320.417 138.164 319.199 137.926 318.163 137.45C317.155 137.002 316.371 136.344 315.811 135.476C315.251 134.608 314.971 133.6 314.971 132.452C315.335 132.004 315.895 131.458 316.651 130.814C317.407 130.198 318.233 129.582 319.129 128.966V128.714C317.729 128.462 316.651 127.986 315.895 127.286C315.139 126.558 314.733 125.634 314.677 124.514C315.181 124.01 315.713 123.534 316.273 123.086C316.861 122.61 317.491 122.162 318.163 121.742V121.07L320.641 121.826C319.885 122.246 319.339 122.624 319.003 122.96C318.667 123.296 318.499 123.632 318.499 123.968C318.499 124.5 318.835 124.892 319.507 125.144C320.207 125.396 321.075 125.578 322.111 125.69C323.175 125.802 324.309 125.928 325.513 126.068C326.717 126.208 327.851 126.432 328.915 126.74C329.979 127.048 330.847 127.496 331.519 128.084C332.191 128.672 332.527 129.498 332.527 130.562C332.527 131.514 332.233 132.438 331.645 133.334C331.057 134.258 330.245 135.084 329.209 135.812C328.201 136.54 327.053 137.114 325.765 137.534C324.505 137.954 323.189 138.164 321.817 138.164ZM323.329 135.644C324.337 135.644 325.261 135.476 326.101 135.14C326.941 134.804 327.613 134.356 328.117 133.796C328.649 133.236 328.915 132.62 328.915 131.948C328.915 131.444 328.719 131.038 328.327 130.73C327.963 130.422 327.235 130.142 326.143 129.89C325.051 129.666 323.441 129.414 321.313 129.134C320.613 129.666 320.081 130.24 319.717 130.856C319.353 131.5 319.171 132.13 319.171 132.746C319.171 133.614 319.535 134.314 320.263 134.846C321.019 135.378 322.041 135.644 323.329 135.644ZM323.329 120.314C324.505 120.314 325.415 119.936 326.059 119.18C326.703 118.424 327.025 117.36 327.025 115.988C327.025 114.448 326.633 113.216 325.849 112.292C325.093 111.368 324.071 110.906 322.783 110.906C321.607 110.906 320.697 111.298 320.053 112.082C319.409 112.838 319.087 113.916 319.087 115.316C319.087 116.828 319.465 118.046 320.221 118.97C321.005 119.866 322.041 120.314 323.329 120.314ZM322.489 122.582C321.005 122.582 319.703 122.316 318.583 121.784C317.463 121.224 316.581 120.454 315.937 119.474C315.321 118.466 315.013 117.318 315.013 116.03C315.013 114.574 315.377 113.272 316.105 112.124C316.833 110.976 317.813 110.052 319.045 109.352C320.305 108.652 321.691 108.302 323.203 108.302C324.043 108.302 324.813 108.386 325.513 108.554C326.213 108.694 326.857 108.764 327.445 108.764C328.005 108.708 328.803 108.568 329.839 108.344C330.875 108.092 332.023 107.784 333.283 107.42L333.451 107.63L332.947 110.36C332.387 110.444 331.785 110.514 331.141 110.57C330.525 110.598 330.007 110.64 329.587 110.696L329.419 110.906C330.539 112.11 331.099 113.524 331.099 115.148C331.099 116.548 330.707 117.808 329.923 118.928C329.167 120.048 328.145 120.944 326.857 121.616C325.569 122.26 324.113 122.582 322.489 122.582ZM344.284 128.504C342.436 128.504 340.826 128.112 339.454 127.328C338.082 126.544 337.018 125.452 336.262 124.052C335.506 122.624 335.128 120.958 335.128 119.054C335.128 117.57 335.38 116.184 335.884 114.896C336.388 113.608 337.074 112.474 337.942 111.494C338.838 110.514 339.86 109.744 341.008 109.184C342.156 108.624 343.388 108.344 344.704 108.344C349.128 108.344 351.34 110.528 351.34 114.896C351.34 115.288 351.298 115.694 351.214 116.114C351.158 116.534 351.102 116.87 351.046 117.122L350.542 117.584H339.286C339.286 119.824 339.734 121.588 340.63 122.876C341.526 124.164 342.786 124.892 344.41 125.06C346.062 125.228 347.994 124.808 350.206 123.8L350.458 123.926L351.046 125.522C350.458 125.942 349.758 126.39 348.946 126.866C348.162 127.314 347.35 127.692 346.51 128C345.698 128.336 344.956 128.504 344.284 128.504ZM339.37 115.694L346.132 115.358C346.496 115.302 346.734 115.218 346.846 115.106C346.986 114.966 347.056 114.7 347.056 114.308C347.056 113.216 346.79 112.39 346.258 111.83C345.726 111.27 344.956 110.99 343.948 110.99C342.744 110.99 341.722 111.41 340.882 112.25C340.07 113.062 339.566 114.21 339.37 115.694ZM357.644 119.138L357.098 118.718L356.552 100.028L356.93 99.482L361.34 98.642L361.844 99.23L359.492 118.76L357.644 119.138ZM357.938 128.462C357.042 128.462 356.37 128.21 355.922 127.706C355.474 127.174 355.25 126.53 355.25 125.774C355.25 124.906 355.516 124.192 356.048 123.632C356.608 123.072 357.322 122.792 358.19 122.792C359.086 122.792 359.758 123.058 360.206 123.59C360.682 124.094 360.92 124.738 360.92 125.522C360.92 126.334 360.654 127.034 360.122 127.622C359.59 128.182 358.862 128.462 357.938 128.462Z" fill="black"/>
</svg>
