<svg width="354" height="354" viewBox="0 0 354 354" fill="none" xmlns="http://www.w3.org/2000/svg">
<path d="M176.38 321.23C175.76 320.83 169.89 312.85 163.32 303.5C156.76 294.15 146.17 279.08 139.8 270C127.95 253.12 114.37 231.61 109.48 221.97C102.66 208.5 98 190.28 98 177.05C98 164.35 101.88 148.77 108.75 133.91C116.85 116.39 137.16 83.9601 158.49 54.5001C164.46 46.2501 170.71 37.5901 172.36 35.2601C175.73 30.5201 178.34 29.2101 180.63 31.1101C181.48 31.8101 186.32 38.2601 191.39 45.4401C231.47 102.21 247.32 129.88 254.15 155.04C256.04 162.02 256.44 166.04 256.46 178C256.47 190.78 256.15 193.67 253.73 202.36C248.17 222.36 235.43 244.8 206.56 285.5C199.14 295.95 190.33 308.44 186.98 313.25C181.18 321.59 179.2 323.08 176.38 321.23ZM190.86 254.66C219.52 211.69 226 197.25 226 176.35C226 158.05 221.82 146.69 205.8 121.39C191.45 98.7401 178.56 79.1101 178 79.0601C177.39 79.0101 155.94 111.6 147.34 125.65C137.99 140.91 134.04 149.38 131.4 159.81C126.49 179.15 129.28 194.97 141.48 217.09C152.43 236.94 177.13 272.66 179.07 271.46C179.63 271.11 184.94 263.56 190.86 254.66Z" fill="white"/>
</svg>
