<svg fill="none" height="92" viewBox="0 0 92 92" width="92" xmlns="http://www.w3.org/2000/svg"><path d="m0 0h91.56v91.56h-91.56z" fill="#3984fd"/><g fill="#fff"><path d="m22.5285 36.2241c0-1.7123 1.4701-3.1005 3.2836-3.1005h19.7016c5.4406 0 9.8509 4.1644 9.8509 9.3015v12.402c0 1.7124-1.4701 3.1005-3.2837 3.1005h-19.7016c-5.4405 0-9.8508-4.1643-9.8508-9.3015z"/><path d="m57.0096 44.7555c0-1.5019.5773-2.9529 1.6247-4.0834l5.552-5.9909c1.4973-1.6159 4.3159-.6159 4.3159 1.5313v18.6274c0 2.1471-2.8186 3.147-4.3159 1.531l-5.552-5.9908c-1.0474-1.1304-1.6247-2.5815-1.6247-4.0834z"/></g></svg>